<?xml version="1.0" encoding="utf-8"?>
<!-- Generator: Adobe Illustrator 16.0.0, SVG Export Plug-In . SVG Version: 6.00 Build 0)  -->
<!DOCTYPE svg PUBLIC "-//W3C//DTD SVG 1.1//EN" "http://www.w3.org/Graphics/SVG/1.1/DTD/svg11.dtd">
<svg version="1.1" id="Layer_1" xmlns="http://www.w3.org/2000/svg" xmlns:xlink="http://www.w3.org/1999/xlink" x="0px" y="0px"
	 width="1000px" height="1000px" viewBox="0 0 1000 1000" style="enable-background:new 0 0 1000 1000;" xml:space="preserve">
<style type="text/css">
<![CDATA[
    .st0{fill-rule:evenodd;clip-rule:evenodd;fill:#70BEE0;}
    .st1{fill-rule:evenodd;clip-rule:evenodd;fill:#E53C8D;}
    .st2{fill-rule:evenodd;clip-rule:evenodd;}
    .st3{fill-rule:evenodd;clip-rule:evenodd;fill:#2B6A7F;}
    .st4{fill-rule:evenodd;clip-rule:evenodd;fill:#999999;}
    .st5{fill-rule:evenodd;clip-rule:evenodd;fill:#FF9933;}
    .st6{fill-rule:evenodd;clip-rule:evenodd;fill:#FFCC33;}
    .st7{fill-rule:evenodd;clip-rule:evenodd;fill:#FFFFFF;}
    .bg {fill-rule:evenodd;clip-rule:evenodd;fill:#3288e6;}
]]>
</style>
<path class="bg" d="M0.5,1c333,0,666,0,999,0c0,333,0,666,0,999c-333,0-666,0-999,0C0.5,667,0.5,334,0.5,1z"/>
<path class="st2" d="M294.1,622.8c-3.9,6.5-8.1,12.2-13.1,17.3c-0.7,0.7-1.4,1.7-2.2,2c-7.4,2.7-13.4,8.1-20.9,10.8
	c-2.2,0.8-4.4,2.3-5.9,4.2c-5,0.6-9.7,2.2-14.5,2.9c-4.6,0.6-9.1,2.4-13.8,3.4c-2.2-0.1-3.6-2.1-5.8-3.1c-5.7,1-10.7-1.2-15.2-4.8
	c-2.8-0.5-5.1,0.1-7.4,1.9c-3.9,3.2-8.3,6-12.4,9c-2,1.5-4.2,2.6-6.6,3c-3.1,0.5-5.4,2.9-8.6,3.5c-4.5,0.8-8.8,2.3-13.4,2.6
	c-1.9,0.1-3.7,1.1-5.6,1.7c-4.5-0.2-8.8-2.9-13.5-1.1c-0.7,0.3-1.2-0.4-1.8-0.4c-2.8-0.3-5.3-1.7-8.2-1.2c-0.3,0.1-0.7,0.1-1-0.1
	c-5.1-3.2-11.8-4-15.7-8.7c-3.7-4.4-7.7-8-12.5-11.1c-0.6-0.4-1.2-1.2-1.5-2c-0.9-3-2.8-5.6-3.9-8.4c-1.7-4.4-4.2-8.5-5.1-13.2
	c-0.3-1.7-1.4-2.5-2.8-3.6c-2.6,0-5.5-0.1-8.3,0c-3.1,0.2-5.5-0.5-6.9-3.5c-0.2-0.4-0.6-0.8-0.7-0.9c-1.1-5.5-0.9-10.8-2.2-15.9
	c-0.1-0.5-0.1-1-0.1-1.5c0.7-8.2-1-16.2-1.1-24.3c-0.1-4.3-1.2-8.5-0.9-12.9c0.3-3.6-0.4-7.2,0.9-10.8c0.5-1.5,0.4-3.4-0.1-4.9
	c-1.2-4.6-0.8-9.2-0.8-13.9c-0.1-5.3-0.2-10.7,0-16c0.3-6.6-1.5-13.1-1.1-19.8c0.3-6.6,0.1-13.3,0-20c0-1-0.4-1.9-0.6-2.9
	c-0.5-2.5-0.7-5,0-7.4c0.7-2.3,1.1-4.5-0.1-6.7c-0.3-0.7-0.3-1.6-0.3-2.4c0.6-6.9-0.3-13.8-0.1-20.8c0.1-2.5-0.1-5,1.1-7.2
	c2.1-4,1.8-8.6,2.9-12.8c1.1-4.4,3.3-8.2,5.5-12c0.8-1.3,1.5-2.5,1.9-3.9c1-3.4,7.2-13.3,9.7-15.8c5.8-5.8,10.6-12.5,16-18.7
	c2.7-3.1,5-6.4,8.3-9.1c1.9-1.5,2.6-4.3,2.1-7.1c-1.2-6.6-2.1-13.2-3.4-19.7c-1-5.3-2-10.6-2-16.1c0-1.9-0.6-3.9-1.1-5.7
	c-1.1-4.1-0.8-8.2-0.8-12.3c-0.1-7.2,0.2-14.3-0.1-21.5c-0.4-8.8,1.2-17.3,3.3-25.8c1-4.1,1.7-8.3,3.5-12.2c0.5-1.1,1-2.3,1.7-3.5
	c1.2-2.1,2.3-4.2,2.7-6.8c0.4-3,2-5.7,4.4-8c4.9-4.8,10-9.5,14.4-14.9c0.3-0.4,0.5-0.7,1.1-0.9c3.3-1.1,5.3-3.9,7.6-6.2
	c2.8-2.8,5.8-5.2,9.5-6.9c2.3-1.1,4.3-2.9,6.4-4.6c3.5-3,7.3-5.6,11.1-8.1c4.4-2.9,8.4-6.1,12.8-8.9c2.6-1.6,5.6-2.6,8.3-4.2
	c5.2-3.1,10.5-6.1,15.8-8.9c3.6-1.9,7.4-3.4,11.2-5c5.4-2.3,10.8-4.3,15.7-7.8c3.8-2.7,8.1-4.9,12.7-6.5c3.3-1.1,6.2-3.5,9.6-4.7
	c4.8-1.7,9.4-3.8,14.1-5.7c1.8-0.8,3.8-0.2,5.8-1.1c2.4-1,5.1-1.4,7.1-3.2c1.6-1.4,3.8-1,5.6-1.7c6.9-2.6,13.9-4.7,20.7-7.2
	c3.3-1.2,6.7-1.2,10.1-2c1.7-0.4,3.5-0.9,5.1-1.6c2.3-0.9,4.5-1.9,7.1-1.6c0.8,0.1,1.6-0.2,2.4-0.5c2.4-1.1,5-1.5,7.7-1.6
	c2.1,0,4.2-0.8,6.2-1.4c1.2-0.4,2.3-0.6,3.4-0.4c4.3,0.6,8.4-0.4,12.5-0.8c6.2-0.6,12.4-2.1,18.8-1c2,0.4,4.2-0.1,6.3-0.2
	c10.2-0.5,20.5,0.4,30.7-0.1c2.4-0.1,4.5,1.8,7.2,0.4c2.3-1.2,4.7,0.7,7.2,0.9c2.4,0.2,5.1,0.2,7.3,1c5.3,1.9,10.9,2.2,16.1,4.1
	c1,0.3,1.9,0.5,2.8,0.7c3.6,0.7,7,1.7,9.2,5c0.8,1.1,1.8,1.9,3.1,2.3c1.6,0.6,2.9,1.5,4,2.8c0.8,0.9,1.7,1.5,2.9,1.8
	c6.2,1.9,9.9,7,14.1,11.5c2.9,3.1,5.3,6.6,8.1,9.8c6,6.6,12,13.1,17.1,20.4c3,4.3,6,8.6,9,13c2.2,3.1,4.1,6.3,6.2,9.4
	c3.5,5.3,4.6,11.1,4.8,17.2c0.1,2.2,0,4.3,0,6.5c0.1,5.8-0.9,11.5-1.8,17.2c-0.3,2.3-0.1,4.6-0.1,6.6c-3.4,4.9-6,9.6-7.4,15.1
	c-1.2,4.6-1.9,9.8-6.1,13.1c-0.1,0.1-0.2,0.3-0.3,0.4c-2.7,7-8.2,12.3-12,18.7c-0.8,1.4-1.9,2.7-2.3,4.3c-0.4,1.4-1,2.3-2.5,2.8
	c-0.8,0.3-1.8,1.2-2,2.1c-0.9,3.3-3.8,4.9-5.6,7.4c-3.2,4.3-7.7,7.4-11.4,11.3c-0.9,0.9-2.1,1.6-3.2,2.3c-4.8,2.8-8.5,7.1-13.6,9.5
	c-1.4,0.6-2.1,1.9-3.4,2.7c-3.6,2.3-6.9,4.9-11.1,6.1c-2.3,0.6-4.7,1.5-6.7,3.1c-1.6,1.3-3.7,1.3-5.6,1.5c-1.3,1.3-1.8,2.9-2.5,4.4
	c0.5,0.9,0.6,1.9,0.5,2.9c-0.2,2.9,0.4,5.6,1.4,8.2c1.1,2.8,0.7,5.4,0,8.2c-1.3,4.8-3.1,9.3-5.3,13.7c-2,3.9-0.9,7.1,1.5,10.5
	c2.8,4,6.9,6.5,10,10c5.5,6.2,11.3,12,16.8,18.1c2.8,3.1,5.6,6.1,8.2,9.5c5.1,6.9,8.3,14.7,10.6,22.9c1,3.7,2.4,7.2,5,10.1
	c-0.4,3.1,0.5,5.9,1.3,8.8c1,3.7,1.9,7.5,2.7,11.4c0.5,2.8,1.5,5.4,2.8,7.8c1,1.9,1.2,3.7,1.3,5.7c0.1,4.3,0.5,8.5,2.5,12.4
	c0.3,0.6,0.5,1.3,0.4,1.9c-0.2,2.5,0.2,4.9,1,7.3c1.5,4.1,0.2,8.4,0.9,12.5c0.7,4,1.4,8.1,1.8,12.1c0.5,5.4,0.9,10.9-0.4,16.3
	c-0.1,0.3-0.3,0.6-0.3,0.9c0.5,5.5-1.9,10.9-1,16.3c0.9,5.5,0.2,11,1.1,16.3c1,5.6,0.3,11.2,0.9,16.8c0.4,3.7,0.9,7.4,1.6,11.1
	c0.6,3,1.2,6.2,1.2,9.2c0,4.5-2.2,8.4-4.9,11.8c-2.1,0.7-3.9,0.1-5.7,0.3c-3.4,1.8-6.2,4.3-8.8,7.1c-2.4,2.5-5.6,4.1-8.2,6.2
	c-2.9,2.4-6.5,3.5-9.3,6.1c-3.3,2.9-7.9,3.8-11.8,5.6c-0.9,0.4-2.3,0.2-3.4-0.1c-2.9-0.6-5.7,0.1-7.7,1.9c-3.8,3.4-8,2.7-12.1,1.7
	c-5.5-1.4-11.1-2.6-16.8-3.4c-2.8-0.4-5.4-1.6-7.7-3c-2.7-1.6-5.7-2.4-8.3-4.2c-2.7,1.1-5.3,2-7.3,4.1c-1.5,1.6-3.7,1.4-5.5,1.8
	c-1.7,0.4-3.6,0.7-5.1,1.4c-2.6,1.1-5.3,1.2-7.8,0.6c-2.7-0.7-5.2-0.7-7.9-0.7c-4.2,0-8.3-0.2-12.5,0c-4.2,0.3-8.1-0.9-12-2.1
	c-0.9-0.3-1.9-0.7-2.6-1.4c-3.2-3.1-6.4-6.1-9.9-8.9c-2.5-2-3.6-5-4.5-8.1c-1.7-5.9-3-12-3.8-17.9c-0.7-1.6-2.3-1.5-3.1-2.1
	c-4.9,0.5-9.4,2.7-14.2,0.8c-0.9-0.4-1.6,0.4-2.3,0.4C298.2,621.3,296.3,622.3,294.1,622.8z"/>
<path class="st2" d="M591.5,407.5c5.3-2.4,10.2-2.9,15.7-3.8c1.6,0.1,2.8,2.4,4.8,2.9c1.4,0.3,2.8,0.9,4.2,1.2
	c3.7,0.8,6.9,2.5,9.9,5c3.8,3.2,7.6,6.1,10,10.6c1.3,2.5,2.8,4.9,2.7,7.8c0,1.1,0.5,1.9,0.8,2.8c0.8,2.3,1.3,4.7,1.3,7.2
	c0,3.3,1.2,6.4,1.1,9.7c0,0.5,0.8,1,1.1,1.5c4.9-2,8.5-5.8,12.7-8.5c0.8-0.5,0.9-1.3,1.3-2c3.6-6.2,8.5-11.2,14.1-15.7
	c3-2.4,5.8-4.9,9.7-5.6c2.9-0.5,5.9-0.6,8.8-1.1c9.1-1.5,15.6,3.4,22.2,8.1c0.3,0.2,0.6,0.4,0.7,0.7c3,6.4,8.3,11.4,11.2,17.9
	c1.4,3.1,2.2,6.5,3.9,9.5c0.3,0.6,0.7,1.1,1.1,1.8c5.8,0.5,11.4-0.9,16.9-2.4c4.6-1.2,9.1-2.8,13.6-4c3.1-0.8,6.2-1.9,9.4-2.7
	c5.9-1.4,9.6-5.1,11.3-11.3c1-3.5,1.4-7.4,3.3-10.7c1.1-1.9,0.7-4.1,1.5-6.2c2.7-7.5,5.1-15.3,10.8-21.2c3.3-3.4,6-7.8,11.4-8.5
	c3.6-3.7,8.9-2.8,13.2-4.6c0.6-0.3,1.3-0.3,1.9-0.3c4.9,0,9.9,0.3,14.5-2c4.7,0.7,8.6-1.6,12.8-3.1c6.5-2.4,13.3-3.4,20-4.7
	c0.5-0.1,1.1-0.2,1.5,0c2.5,1.2,5.2,0.7,7.9,0.8c10.8,0.5,19.2,4.7,24,15c1.2,2.5,2,5.4,3.8,7.3c2.7,3,3.6,6.8,5,10.2
	c1.7,4.1,4.2,8.2,4,13c-0.1,2.1,1.3,3.6,2.1,5.8c-1.1,5.2,0.7,10.5,2.2,15.6c1.6,5.4,1.9,10.9,3.8,16.2c1,2.8,0.4,5.9,1.7,8.7
	c0.4,0.9,0.3,2.4-0.1,3.4c-0.8,2-0.7,3.8,0.1,5.8c0.3,0.7,0.3,1.7,0.1,2.5c-1.7,7-1.4,14.3-3.8,21.2c-0.3,0.7-0.2,1.7-0.1,2.5
	c0.1,2-0.5,3.8-1.3,5.7c-1.8,4.2-3.2,8.5-4.7,12.8c-4.6,13.2-11.6,25.2-19.3,36.7c-2.3,3.5-5.2,6.8-8.4,9.7
	c-4,3.7-7.8,7.5-11.2,11.8c-1.7,2.2-3.9,3.7-6.2,5.1c-2.9,1.8-5.4,4.2-8,6.5c-2.1,2-4.3,3.6-7.4,3.3c-2.4-0.2-4.5,1.3-6.3,2.5
	c-3.2,2.3-6.7,4.3-9.7,7.4c-4.2-0.9-7.4,2.2-10.5,4.1c-3.2,2-6.6,3.6-10,4.8c-8.1,2.9-16.4,5.3-24.8,7.1c-1.4,0.3-2.9,0.6-4.3,1
	c-3.6,1.1-7.2,1.8-11,2.2c-5,0.5-9.8,2.6-14.7,3.2c-5.2,0.6-10.1,2.9-15.4,2.6c-2.2-0.1-4.2,0.8-6.2,1.3c-2.6,0.6-5.2,0.7-7.8,0.7
	c-4.5,0-9.1-0.5-13.5,0.2c-5.3,0.8-10.6,0.1-15.7,1c-6,1.1-11.9,0.5-17.8,0.8c-1.8,0.1-3.6-0.4-5.3,0.8c-0.6,0.4-1.7,0.5-2.4,0.2
	c-4.4-1.8-8.7,0.2-13,0.1c-5.3-0.2-10.4-1.3-15.5-1.8c-8-0.8-15.6-3.9-23.6-4.3c-0.5,0-1-0.2-1.4-0.4c-6-3.1-12.6-4.5-18.8-7
	c-2.5-1-4.9-2.1-6.8-3.7c-2.7-2.4-6.1-4-8.4-7c-0.7-0.9-1.6-1.5-2.8-2c-6.5-2.6-11.9-7.2-16.8-11.9c-4.6-4.4-9.1-9-13.1-13.9
	c-3.1-4-5.6-8.4-8.6-13c0.9-5.8-1.2-11.8-1-18c0.1-5.2,1-10.1,2.3-15c0.5-1.8,0.8-3.5,0.8-5.3c0-7.8,0.1-15.6,0-23.5
	c-0.1-4.2,0.6-8.1,1.7-12.1c0.7-2.7,0.9-5.6,1.1-8.3c0.5-6.3,2.9-12.1,3.8-18.2c0.6-4,2.8-6.8,4.5-10.1c2.2-4.3,4.6-8.5,5.1-13.6
	c0.7-7,3-13.5,6.2-19.9c2-4,3.9-8.2,7.5-10.8C586.1,413,588.8,410,591.5,407.5z"/>
<path class="st2" d="M968.6,665.4c2.2,1.6,3.9,2.9,5.7,4.2c0.3,1.5,0.7,3-0.5,4.2c-3.3,3.3-5.4,7.9-10.3,9.8
	c-1.6-1.4-3.1-2.7-4.9-4.4c-4.6,1.6-9.7-1.3-14.5,1.1c-0.4,0.2-1,0.1-1.5,0c-5.6-0.8-11.1-0.1-16.7,0c-1.2,0-2.3,0-3.4-0.6
	c-1-0.6-2.4-0.7-3.4-0.3c-4.2,1.6-8.5,1-12.8,0.8c-4.7-0.2-9.2,1-13.8,1.4c-1.9,0.2-3.9,0.6-5.9,0.6c-7,0.1-14-0.4-20.9,0.3
	c-7.6,0.8-15.3,0.4-22.8,1.2c-6.2,0.6-12.4,1.8-18.7,1.7c-1.3,0-2.6,0.2-3.9-0.5c-0.5-0.3-1.4-0.6-1.9-0.4
	c-4.1,1.6-8.6,0.3-12.7,1.4c-1,0.2-1.9,0.6-2.9,0.5c-3.8-0.3-7.5,0.5-11.2,1.6c-0.8,0.2-1.6,0.5-2.4,0.4c-4.5-0.4-8.8,1.7-13.3,1
	c-3.1,1.8-6.9,0.1-10.1,1.9c-8.1-0.4-16.2,2.2-24.2,0.9c-6.5-1-13-1.3-19.3-0.6c-7.6,0.9-15.2,0.3-22.8,0.8
	c-3.4,0.2-6.4-1.5-9.8-1.1c-4.9,0.5-9.7,1-14.6,1.8c-2.9,0.5-6,0.2-9,0.2c-4.9,0-9.8,0.8-14.6,1.8c-1.7,0.4-2.8-0.5-4.4-0.9
	c-3,1.6-6.1,2.9-9.7,1.2c-5.8,0.4-11.7,0.8-17.5,1.4c-3,0.3-5.8,0.1-8.8-0.1c-8.3-0.6-16.8-1.3-25.1,0.1c-1.5,0.2-2.9,0.5-4.4,0.5
	c-6.5,0-13,0-19.5,0c-2,0-4-0.4-5.8,0.8c-0.4,0.2-1,0.3-1.4,0.2c-4.1-1.5-8.1,0.4-12.2,0.1c-4.1-0.3-8.4-0.4-12.5,0
	c-5.8,0.6-11.5,1-17.3,1c-0.5,0-1.1,0-1.4,0.3c-3.1,2.2-7,0.6-10.2,2.5c-0.3,0.2-0.7,0.2-1,0.1c-4.9-2.4-9.7,0.7-14.6,0.2
	c-4.8-0.5-9.7-0.4-14.5,0.1c-8.1,1-16.3,0-24.4,1c-6.3,0.8-12.6,0-18.8,1.6c-2.7,0.7-5.9,0.9-8.8-0.5c-0.3-0.1-0.7-0.4-0.9-0.3
	c-4,1.9-7.9-0.4-11.8-0.3c-2.9,0.1-5.9-0.3-8.7,0.3c-4.9,1.1-9.9,1.2-14.7,1.5c-5.9,0.4-11.8,1.8-17.8,1.5c-3.7-0.2-7.3-0.1-11,0
	c-2,0-3.9-0.2-5.8,0.7c-1.5,0.7-3.3,0.5-4.9-0.4c-1.7,0.8-3.5,1.7-5.3,2.6c-1.8-0.5-3.5-1.4-5.6-0.5c-1.6,0.7-3.4-0.6-5.2-0.5
	c-4.6,0.2-9.3,0.1-14,0.1c-16,0-31.9,0-47.9,0c-2.1,0-4.3-0.3-6.4,0.8c-0.8,0.4-2.1,0.4-2.9,0.1c-2.9-1.3-5.9-0.7-8.8-0.8
	c-5.8-0.3-11.5-0.8-17.1-1.9c-1.4-0.3-3.1-0.5-4.4,0c-3.3,1.2-6.6,1-9.8,0.8c-6.8-0.4-13.5,1.3-20.3,1.1
	c-15.2-0.4-30.5-1.7-45.7-1.1c-1,0-2,0.1-2.9-0.5c-1.2-0.8-2.5-0.7-3.8,0.1c-0.9,0.6-1.9,0.5-2.9,0.3c-6.6-1-13.1-1.5-19.7,0
	c-1.9,0.4-4.1,0.3-5.9-0.2c-2.3-0.7-4.5-1.1-6.7-0.1c-1.6,0.7-2.7-0.8-4.3-0.7c-3.4,0.1-7,0.4-10.4-0.8c-0.7-0.3-1.7,0-2.5,0.1
	c-5.3,1-8.5,1-13.7-0.1c-0.6-0.1-1.4-0.3-2-0.1c-5.4,1.7-10.8,0.4-16.2,0.6c-4.8,0.2-9.6,0.2-14.3,0.3c-1.8,0-3.5-0.1-5.4-0.6
	c-3.6-1.1-7.3,0.1-10.5,1.6c-5.4,2.6-10.9,3.6-16.8,2.9c-2.8-4.2-2.8-4.2-2.8-9.1c1-1.8,2.4-2.5,4.7-2.8c7.3-1.1,14.6-2.1,21.8-3.6
	c3.8-0.8,7.8-0.5,11.7-0.4c4.2,0.1,8.4,0.7,12.4-0.1c3.3-0.6,6.5-0.7,9.8-0.7c1.6,0,3.3-0.5,4.8,0.7c0.6,0.4,1.3,0.3,1.9,0.1
	c2.9-1.3,5.6-0.9,8.6,0.1c2.6,0.9,5.6,0.3,8.1-0.2c3-0.6,5.9-0.5,8.8-0.5c4.6,0,9.2-1.1,13.7,0.8c0.7,0.3,1.7,0.1,2.5,0
	c7.7-1.1,15.4,0.5,23.2,0.1c2.1-0.1,4.3-0.3,6.4,0.7c0.8,0.4,2,0.2,2.9,0.1c9.6-1.3,19.1-1.2,28.7-0.3c4.6-1.7,9.3,2,13.9-0.5
	c0.9-0.5,2.3-0.1,3.5-0.1c9.7,0,19.3-0.2,29,0c4.7,0.1,9.4,0.8,14.1,1.8c1.1,0.3,2.3,0.2,3.5,0.2c5.3,0,10.7-0.3,16,0.1
	c5.9,0.5,11.8,0.5,17.6,1.7c0.5,0.1,1,0.2,1.5,0.1c5.7-1.7,11.6-0.5,17.3-0.9c1-0.1,2,0.2,2.9-0.4c0.6-0.4,1.2-0.7,1.9-0.4
	c5,1.9,10.2,0.4,15.3,0.8c1,0.1,2,0.1,2.9-0.5c0.7-0.5,1.6-0.7,2.4-0.5c6.7,1.7,13.4-1,20.1,0c2.2,0.3,4.3-0.7,6.2-1.2
	c4.9-1.2,9.9-0.8,14.8-0.9c2.9,0,5.5-1.5,8.3-0.9c2.8,0.6,5.1-1.8,8.2-0.5c2.4,1,5.6,0.4,8.4,0.4c3.3,0,6.8,0.6,10-0.2
	c3.4-0.8,6.5,0.7,9.8,0.2c1.8-0.3,3.6,0.2,5.4-0.7c1.5-0.7,3.2-0.7,4.8,0.2c1.2,0.8,2.7,0.7,3.9,0.4c5.9-1.7,11.9-0.9,17.8-0.8
	c4.2,0.1,8.2-0.8,12.3-1.4c2.1-0.3,4.2-0.6,6.3-0.7c2.1-0.1,4.2-0.3,6.3-0.7c3.4-0.8,6.9-0.4,10.4,0.2c3.1,0.6,6.1,0.5,9.3-0.2
	c3-0.7,6.3-0.7,9.4-0.4c3.4,0.3,6.5-0.8,9.7-1.4c3-0.6,5.9-1,8.8,0c0.8,0.3,1.7,0.7,2.4,0.3c3-1.5,6.3-0.3,9.3-1
	c4.2-1,8.5-0.3,12.6-1.8c0.7-0.3,1.6-0.2,2.5-0.1c13.9,0.3,27.8-1.7,41.7-1.1c1.3,0.1,2.7-0.1,4,0c7.8,0.6,15.5-1.2,23.3-1
	c5.4-2.4,11-0.7,16.5-1c4-0.2,8,0,12,0c1.3,0,2.6,0.1,3.9-0.6c0.6-0.4,1.7-0.5,2.4-0.3c5.1,1.7,9.9-0.4,14.9-0.9
	c4.1-0.4,8.3-0.8,12.4,0.4c1,0.3,2,0.5,2.9,0.3c6.9-1.8,13.9-0.4,20.8-0.9c3.3-0.2,6.6,0.8,9.8-0.8c0.7-0.3,1.2,0.2,1.9,0.4
	c2.3,0.7,4.8,0.9,6.9,0.2c4.3-1.3,8.6-0.7,12.8-0.9c4.3-0.2,8.6,0,13,0.1c1.8,0,3.6-0.3,5.4,0.7c0.5,0.3,1.4,0.4,1.9,0.2
	c3.5-1.2,7.3-0.5,10.8-1.2c2-0.4,3.9-0.7,5.8-0.7c3.8,0,7.6,0.2,11.1-1.6c0.7-0.4,1.6-0.4,2.4-0.4c6.1-0.1,12.2,0.3,18.3-1
	c2.9-0.6,5.9-0.7,8.7-1.3c2.5-0.5,4.9-0.8,7.4-0.7c9.8,0.3,19.5-1.8,29.3-1c5.3-1.6,10.9-0.3,16.2-1.1c6.8-1.1,13.6-0.1,20.3-1.1
	c4.9-0.7,9.9,0.1,14.7-1.7c0.3-0.1,0.7-0.1,1-0.1c6.6,0.4,13.1-1.6,19.8-1.1c3.3,0.3,6.7,0,10,0.1c9.6,0.1,19.2-1.7,28.8-1
	c2,0.1,3.8-1,5.8-1.2c2.6-0.3,5.1-1.3,7.7,0.1c0.7,0.4,1.6,0,2.3-0.5C966,664.9,967.3,665.5,968.6,665.4z"/>
<path class="st1" d="M271,610.4c-1.2,1-2.2,1.9-3.2,2.8c-0.4,0-0.9,0.2-1.4,0.1c-4.5-0.6-8.8,1.2-13.3,1.1
	c-4.3-0.1-8.6-0.5-12.9,0.5c-0.7,0.1-1.3,0.1-1.9,0c-2.6-0.6-5-0.3-7.7,0.2c-4.5,0.8-9.3,0.8-13.9-0.1c-3.3-0.7-6.5-1-9.8,0.1
	c-2,0.6-4,0.2-5.9,0.4c-7.6,0.7-15.1-1.2-22.7-1c-5.9,0.1-11.8,0.8-17.6,1.9c-1.3,0.2-2.7,0.1-4,0.1c-11.6,0-23.3-0.4-34.9,0.1
	c-10.3,0.4-20.5,1.2-30.8,0.9c-0.8,0-1.6,0.1-2.4,0.5c-1.7,0.8-3.5,0.8-5.3,0c-1.8-0.9-3.5-0.5-5.4,0.1c-0.3-0.2-0.9-0.5-1-0.9
	c-0.5-2.7-1.4-5.3-2.3-7.9c-0.9-2.6-1.3-5.4-1.2-8.3c0.2-7.1-0.7-14.1-1.8-21.1c-0.1-0.8-0.1-1.7-0.1-2.5c0-1.3,0.3-2.7-0.1-4
	c-1.2-4.4,0-8.7,0.1-13.1c0-1.3-0.3-2.7,0.6-3.9c0.4-0.6,0.6-1.3,0.3-1.9c-1.7-3.6-0.9-7.5-0.9-11.3c-0.1-18.3-0.1-36.6,0.1-54.9
	c0.1-7-1-13.7-4.1-20c1-1.2,2-2.3,3.3-3.7c-1.5-4.5-1.1-9.3-1.3-14c-0.2-5,1.1-9.8,2.5-14.5c2.4-8.3,5.9-16.2,9.7-23.9
	c0.2-0.4,0.7-0.8,0.8-1.3c0.5-6.2,5.1-10,8.2-14.8c0.3-0.4,0.6-0.8,0.9-1.2c3.7-6.9,9.2-12.4,14.4-18.1c3.8-4.1,7.3-8.4,11.4-12.1
	c2.6-2.3,4.8-4.8,8-6.2c1.1-0.5,1.7-1.9,2.7-2.7c6.8-5.7,14.1-10.4,22.2-14.2c5.1-2.4,10.7-2.8,15.6-5.5c0.5-0.3,1.3-0.3,1.9-0.3
	c2.6,0.3,4.9-0.5,7.1-1.7c3.6-1.9,7.8-1,11.5-2.3c3.8-1.3,7.9-0.5,11.8-1.1c9.3-1.3,18.5-0.8,27.8-0.9c1,0,1.9-0.5,2.9-0.6
	c2.6-0.4,5.1-0.7,7.8,0.3c1.6,0.6,3.4,1.2,5.2,1.4c2.9,0.4,4.9,1.9,5.6,5.3c1.2,6.3,3.6,12.1,7.8,17.2c2,2.4,3,5.4,4.9,7.8
	c3.3,4.3,10.1,8.2,15.4,8.5c1,0.1,1.9,0.1,2.9,0.7c2.4,1.4,5,1.5,8,1.3c3.8,4.2,10,4.1,15,7c2.2-0.1,4.4,0.7,6.7,1.7
	c5.8,2.5,11.9,3.1,18.2,0.6c4.6-1.9,8.7-4.7,13.1-6.9c0.9-0.4,1.6-1.4,2.6-1.3c3,0.4,4.5-1.6,6.2-3.4c4.8-5.1,10-9.6,16.4-12.9
	c3.5,2.5,7.5,3.2,11.5,4.1c3.8,0.9,7.2,3.3,11.3,3.4c1,0,2.1,1,3,1.7c2.3,1.9,5,3.2,7.7,4.4c3.1,1.4,5.7,3.2,7.3,6.2
	c1.5,0.4,2.9,0.8,4.1,1.9c1.5,1.5,3.4,2.6,5.3,3.5c1.9,0.9,3.8,1.9,5,3.8c0.5,0.8,1.3,1.7,2.2,1.9c4.9,1.6,8.2,5.2,11.5,8.8
	c0.8,0.8,1.6,1.8,2.6,2.3c4.2,2.1,7.3,5.7,10.8,8.7c2.4,2.1,3.9,5.2,5.7,8c1,1.5,1.5,3.2,3.5,3.9c0.8,0.3,1.6,1.3,2.1,2.1
	c2.4,4.1,5.6,7.7,8.4,11.5c1.8,2.6,2.6,5.9,3.7,9c0.3,0.7,0.2,1.6,0.6,2.4c4.7,7.7,5.7,16.5,7.4,25.1c1.8,8.6,3,17.3,6.1,25.6
	c1.7,4.5,1.8,8.9,2,13.5c0.1,3.1,0.7,6.2,1.4,9.2c1.2,4.8,2.4,9.5,2.5,14.5c0,2.1,0.6,4.2,1.1,6.3c1.7,7.6,1.1,15.3,0.6,22.8
	c-0.4,5.4-0.8,10.9-0.7,16.3c0.2,6.1,0.5,12.2,1.9,18.1c0,0.2,0,0.3,0,0.5c-0.7,7,1.3,13.8,1.1,20.8c0,1.9-1.2,3.4-1.2,5.4
	c-1.1,0.5-2.3,1-3.4,1.5c-2.6-1-5.1-2-7.7-3c-2.2,0.6-4.3,1.1-7,0.2c-2.7-0.9-5.9-0.3-8.9-0.3c-6.8,0-13.4-0.7-20.1-1.9
	c-0.5-0.1-1-0.1-1.5-0.1c-5.1,0.3-10.2-0.4-15.3-1c-7.3-0.8-14.7-1.2-22.1-0.9c-2-1.6-4.3-2.1-6.9-2.1c-7.5-0.1-14.9-0.6-22.3-1.9
	c-0.5-0.1-1-0.1-1.5-0.1c-14.4-0.4-28.7-1.5-43.1-1c-1.6,0.1-3.3-0.3-4.8,0.7c-0.5,0.3-1.3,0.4-1.9,0.2c-4.6-1.3-9.1,0.6-13.7,0.1
	c-0.9-0.1-1.9,0.3-2.9,0.5c-0.8,0.1-1.7,0.5-2.4,0.2c-4.1-1.4-8.3-0.4-12.4-0.8c-1.9-0.2-3.4,1.5-5.3,1c-4.6-1.2-8.9,0.6-14.3,0.8
	C274.2,613.8,273.4,611.4,271,610.4z"/>
<path class="st3" d="M117.3,353.1c-1.9-3.3-3.1-6-2.9-9.3c0.1-1.3-0.4-2.6-0.6-3.9c-1.1-5.5-2.8-10.9-2.3-16.6
	c0.2-2.6-0.8-4.9-1.3-7.2c-0.5-2.9-0.7-5.8-1.6-8.6c-0.9-2.7-1.9-5.6-0.2-8.6c0.5-0.9,0.3-2.4,0-3.4c-1.4-4.2-1.3-8.4-0.1-12.7
	c0.3-0.9,0.3-2,0.2-3c-0.7-5.2,1.3-10.2,1-15.3c-0.1-1.1,0.7-1.9,1.1-2.7c0.8-1.8,1.7-3.6,2.6-5.4c-0.7-1.5-0.8-3.1-0.6-5.1
	c0.2-1.1,1.8-1.5,2.7-2.9c0.1-1.1,0.2-2.6,0.3-4.2c3.9-2.9,3.3-8.8,7.8-11.9c2.7,3.9,4.3,7.8,5.2,12.2c1.2,6.3,0.5,12.5,0.9,18.8
	c0.4,5.4,2.2,10.4,4.4,15.4c3.8,0,7.4,0.6,10.7-0.1c6-1.2,12.6-1.9,15.9-8.4c4-3,4-7.3,3.9-11.7c-0.1-7.7-0.1-15.3-0.1-23
	c0-1.5,0.3-3-0.6-4.4c-0.2-0.4-0.5-1.1-0.3-1.4c2-4,0.4-8.5,1.6-12.7c1.5-5.2,3.6-10.1,5.7-15c1.2-3,1.8-6.3,4.3-8.8
	c1.5-1.5,2.4-3.5,4.3-4.7c0.4-0.2,0.8-0.6,0.9-1c1.2-3.3,4.2-5,6.6-7.2c2.4-2.1,5-3.1,8-2.4c0.3,0.2,0.4,0.3,0.5,0.4
	c0.7,1.5,1.8,10.6,1.6,12c-0.6,5.8-1.9,11.6-3,17.3c-0.7,3.7-0.5,7.5-1.5,11.2c-0.9,3.4-0.7,7.2,0.9,10.7c0.9,1.9,1.4,4,2,5.6
	c1.5,1.6,2.8,2.9,4,4.2c4.4-1.8,8.7,1.3,13,0.3c4.3-1,8.7-0.6,12.3,0.2c1.8-0.7,2.1-2.1,3.1-2.1c1.5,0.2,1.1,1.4,2.1,1.8
	c1.2,0.2,1.8-0.8,2-1.7c1.6-6.9,5.3-13,7-19.8c0.5-2,1.5-4,1.2-6.3c-0.4-3.2,0.5-6.2,1-9.3c0.9-5.2,2.1-10.3,1.9-15.6
	c0-0.8,0.2-1.6,0.6-2.4c0.6-1.2,1.3-2.4,1.3-3.7c-0.2-8,4.6-14.2,7.5-21.1c0.7-1.7,1.8-3.1,1.6-5.1c0-0.5-0.1-1.1,0.2-1.4
	c2.7-3.7,4.6-8,7.9-11.3c1.3-1.3,3.1-1.8,4.9-2.3c3.1-1,6.4-1.9,8.4-4.9c6.8,0.5,12.5-3.6,19-4.2c1.5,2.9,0.1,5.4-1.1,7.2
	c-2.5,3.5-4,7.6-5.6,11.4c-2.4,5.5-5.4,10.8-7.2,16.5c-0.6,1.8-1.1,3.6-2.2,5.4c-3.4,5.8-5.5,12.2-7.7,18.5c-1.4,4-2.3,8.1-3.4,12.2
	c-0.7,2.4-0.6,5.1,0.6,7.8c0.6,1.4,1,2.8,2.4,3.5c2,1,3.3,2.7,5.1,4.3c1.3,0.6,3,0.4,4.5,1.4c4.2,2.9,8.8,4.2,13.9,1.9
	c1-0.5,2.1-0.7,3.3-0.3c2.4-2.3,4.1-4.9,5.3-8c1.3-3.5,3.5-6.6,5.4-9.8c1.5-2.5,1.7-5.8,4.8-7.2c0.4-0.2,0.3-1.2,0.5-1.8
	c0.3-0.8,0.5-1.8,1.1-2.2c4.8-2.7,5.8-8.1,8.6-12.2c3-4.4,6.5-8.3,9.9-12.2c0.8-0.9,1.7-1.6,2.3-2.6c2-3.4,4.6-6.4,7.4-9.3
	c1.2-1.2,3.2-2.2,2.7-4.6c2.4-1.1,5.2-1.9,5.3-5.2c3.3-2.5,4.8-7.1,9.9-7.7c2.1-0.3,4-2.7,5.9-4.2c5.8-4.3,11.2-9.1,18-12
	c3.2-1.3,6-3.4,8.1-6.4c3.7,0,7.4,0,11,0c2.3,0,4.6,0.4,6.9-0.8c0.8-0.4,2.1-0.4,2.9-0.1c4,1.5,8.2,0.8,12.3,0.8
	c4.2,0,8.2,0.7,12.1,2c3.7,1.2,7.5,2.3,11.4,2.9c7.4,1.3,13.5,4.7,19,9.6c0.4,0.3,0.7,0.8,1.1,1c7.8,3.1,12.5,9.8,18.2,15.3
	c6.6,6.4,12.6,13.3,17.7,20.9c2.5,3.8,5.4,7.4,7.9,11.2c2.7,4.3,5.8,8.3,7.6,13.3c0.9,2.5,3.2,4.5,4.4,7.1c1.4,3.2,2.5,6.3,2.3,9.9
	c-0.2,4.7-0.2,9.3,0,14c0.2,5.5-0.9,10.9-2.4,16c-1.8,6.3-4,12.8-6.9,18.7c-1.5,3.1-3.9,6-5.5,9.2c-3.5,6.9-8.3,12.9-12.7,19.2
	c-2.9,4.2-5.9,8.6-9.7,12.2c-3.7,3.5-7.7,6.6-11.6,9.8c-7,5.7-15,9.9-22.8,14.4c-3.2,1.9-6.6,3.4-9.9,5.3c-6.8,3.9-14.1,6.1-22,5.9
	c-1.8-0.1-3.7-0.2-5.5,0.2c-1.6,0.3-3,1.2-4.6,1.9c-2-0.1-4.1-1.9-6.1-0.1c-0.2,0.2-0.7,0.2-1,0.1c-3.2-1.2-6.3-0.9-9.6-0.1
	c-3.1,0.7-6.6,0.5-9.7-0.1c-3.3-0.6-7-0.1-10-2.2c-0.9-0.6-1.9-0.6-2.9-0.6c-0.7,0-1.5,0.2-2-0.1c-2.7-2.3-6.3-1.6-9.2-3
	c-1.2-0.6-2.4-1.1-3.8-0.9c-1.3,0.2-2.3-0.5-3.2-1.1c-2.7-2-5.7-2.8-9.1-3.1c-3.3-0.3-6.8-0.6-10-2.2c-2.1-1.1-4.6-1.5-7.1-1.7
	c-3.3-0.3-6.7-0.5-9.9-2.2c-2.4-1.2-5.4-1.7-8.1-1.6c-6.8,0.3-13.6-1-20.3-1.1c-7.3-0.1-14.6,0-22,0c-1.3,0-2.6,0.2-3.9,0.5
	c-5.3,1.2-10.5,2.7-16,2.5c-1.5-0.1-2.8,0.3-4.3,0.8c-4.9,1.6-10.2,2-15.1,4.1c-1,0.4-2.3,0.1-3.5,0.1c-6.7,0-13.3,0.3-20-0.1
	c-6.3-0.3-12.5,1.6-18.8,1.1c-4.3,1.8-9.3,0-13.4,2.8c-4.4-0.5-8.1,2.2-12.5,2.3c-2.2,0-4.4,1.2-6.5,2.1c-6.1,2.8-12.2,5.7-18.5,8
	c-1.8,0.7-3,2.7-4.7,3.5C127.1,345.1,122.1,348.4,117.3,353.1z"/>
<path class="st0" d="M308.8,125.2c10.3-3.3,20.6-5.2,30.8-7.3c8,1.1,16-2,24.3-0.8c-0.2,1.8-0.6,3.1-1.7,4.2
	c-4.5,4.4-7.9,9.9-12.4,14.1c-4.8,4.4-8.3,9.7-12.8,14.3c-4.8,4.9-8.9,10.5-12.8,16.1c-0.2,0.3-0.2,0.7-0.4,0.9
	c-6.7,6.1-10.2,14.5-15.4,21.6c-4.2,5.7-7.1,12-10.5,18.1c-1,1.7-1.6,3.6-2.3,5.4c-0.9,2.4-2.4,4.3-4.9,5c-4.8-1.7-8.5-5.1-13-7.2
	c-0.6-0.3-1.4-1.3-1.4-1.9c0.1-3-1.7-5.7-1.2-8.8c0.2-1-0.2-2,0.4-2.9c1.6-2.9,3.4-5.7,2.8-9.2c2.4-3.2,2.7-7.2,4.6-10.7
	c3.4-6.2,6-12.7,9.1-19c2-4,3.1-8.5,5.6-12.3c1.3-2,2.2-4.5,2.9-6.7c1.4-4.6,4.2-8,7.2-11.5C308.1,126.1,308.4,125.7,308.8,125.2z"
	/>
<path class="st4" d="M91.3,629.5c0.8-1.5,1.6-2.1,2.9-2.2c7.9-0.6,15.8-1.5,23.6-1.8c8-0.3,16,0,24-0.2c5.9-0.2,11.8-0.7,17.7-1.2
	c8.2-0.7,16.4-1.9,24.6-1.8c1,0,2-0.3,3,0.7c-2.6,6.8-5.1,13.7-10.1,19.3c-1.9,2.2-2.3,5.4-4.5,7.6c-3,3-6,6-8.6,9.3
	c-0.6,0.8-1.4,1.7-2.2,2c-4,1.3-7.6,3.5-11.4,5.2c-5.3,2.4-10.9,2.4-16.3,2.6c-4.8,0.2-10.1-0.8-14.3-4c-0.5-0.4-1.1-0.7-1.7-0.9
	c-3.8-1.7-6.6-4.6-9.4-7.5c-0.6-0.6-1-1.2-1.9-1.4c-1.7-0.5-3.1-1.7-3.8-3.1c-1.9-3.9-5.3-6.9-6.7-10.8
	C94.9,637.3,92.6,633.7,91.3,629.5z"/>
<path class="st4" d="M306.6,323.8c1.7-0.2,3.2-0.5,4.6,0.3c1.3,0.7,2.6,0.5,3.9,0.6c0.8,0,1.8-0.3,2.5,0.1c3.4,1.8,7.2,2,10.9,2.2
	c1.3,2.5,1,4.7-0.4,6.7c-2.3,3.3-4.1,6.8-7,9.6c-1.5,1.5-2.6,3.4-4.1,5c-5,5.1-10.9,9-16.8,12.9c-2.3,1.5-4.8,2.5-7.5,3.2
	c-0.3,0.1-0.6,0.3-0.9,0.3c-3.1-0.5-6.1-0.2-9.1,0c-3,0.2-5.8-1-8.7-1.5c-2.4-0.4-4.6-1.7-6.4-3.5c-4.9-5.1-9-10.7-11.5-17.4
	c-1.1-3.1-2.4-6.1-1.9-9.5c0.1-1-0.5-1.9-0.8-2.8c-0.4-1.9-0.7-4,1.1-5.9c6.8-0.2,13.5-3.4,20.8-1.8c1.8,0.5,2.7,2,3.5,3.7
	c1.2,2.7,2.5,5.3,3.8,8c1.2,2.7,3.5,3.8,6.3,3.9c1.5,0,3,0,4.5-0.2c1.5-0.1,2.8-0.6,3.8-2c1.7-2.4,4.2-4.2,5.2-7.2
	C303,326.2,305.3,325.3,306.6,323.8z"/>
<path class="st0" d="M214.2,168.7c3-3.2,8.5-6.9,11.7-7.9c1.5-0.5,2.5-1.6,3.6-2.5c3.8-3.2,8.9-4.7,13.7-3.9
	c-2.2,5-2.3,10.8-5.8,15.3c-0.1,1.1,0.8,1.9,0.2,3.2c-3.6,8.7-5.4,18-7.6,27.2c-1.3,5.2-2,10.3-1.8,15.6c0.1,1.8-0.8,3.5-1.2,5.2
	c-0.6,2.8-0.8,5.5-0.9,8.3c-1.6,1.7-3.5,2.3-5.7,2.6c-3,0.5-6,0-8.9,0.5c-3,0.4-5.9,0.2-8.9,0.4c-2.3-2.8-3.6-5.8-3.5-9.5
	c0.1-3.5,0.4-6.8,1.4-10.2c1.3-4.2,1.7-8.6,2.7-12.9c0.6-2.5,1.2-5,2.2-7.4c1.8-4.4,3.6-8.7,5.7-13c0.3-0.6,0.2-1.4,0.6-1.8
	C214.3,175.3,214.6,172.1,214.2,168.7z"/>
<path class="st4" d="M243,651.2c-1.6-0.1-4,0.6-6.3,1.5c-6.1,2.4-12.4,3-18.9,2.7c-0.3,0-0.7,0.1-1,0c-3.8-2.1-8.7-1.8-12-5.2
	c0-1.2,0.6-2.1,1.3-3c2.4-3.1,4.5-6.4,5.9-10.1c0.6-1.7,1.8-3.1,2.7-4.7c0.7-1.1,1.8-2.1,2.2-3.3c1.9-6.3,7.1-7,12.2-6.5
	c3.1,0.3,6.1,0,9.1-0.3c1.5-0.1,2.8-0.2,4.3-0.1c2.4,0.3,4.9,0.8,7.3-0.5c0.8-0.4,1.9-0.3,2.9-0.2c3.3,0.2,6.5,1.3,9.8,1
	c0.8-0.1,1.4,0.9,1.8,1.8C262,636.6,253.7,644.3,243,651.2z"/>
<path class="st4" d="M382,622.5c0.7,0.8,1.1,1.3,1.5,1.8c0.2,0.3,0.3,0.5,0.5,0.9c-0.2,1.4-1,2.7-1,4.2c-0.2,8.1-4.3,13.8-11.3,17.5
	c-1.6,0.9-3.1,1.8-4.7,2.7c-2.5,1.4-5,2.5-8.2,1.8c-2.9-0.6-6,0.4-9-0.1c-1.1-0.2-2.2-0.2-3.3-0.9c-3.9-2.5-8-4.6-10.9-8.2
	c-4.5-5.5-5.7-11.6-3.3-18.4c0.4-1,1.3-1.9,2.6-2.6c3.1,0,6.4,0,9.7,0c1.8,0,3.7,0.3,5.5-0.1c4.8-0.9,9.5-0.3,14.2,0.2
	c4.9,0.6,9.8,0.2,14.6,1.6C379.9,623.5,380.8,623,382,622.5z"/>
<path class="st0" d="M133.5,221.5c1.4-1.7,2.8-3.4,3.4-5.8c0.4-1.8,1.9-3.1,3.3-4.2c1.4-1.1,3.3-1.6,3.3-3.9c0-0.4,0.9-0.9,1.5-1.1
	c2.3-0.7,3.3-2.6,4.2-4.5c1.2-0.2,2.4-0.3,3.5-0.4c2.5-1.5,4.3-5.4,8.6-2.5c-2.2,6.2-2.4,12.8-4.6,18.9c-1,2.7-1.5,5.8-1.3,8.7
	c0.3,5.7-1,11.2-1.1,16.8c0,0.9-0.5,1.6-0.6,2.4c-0.6,2.4-0.8,4.9,0.2,7.3c2.1,5.1,1.3,10.3,1.4,15.4c-9,4.1-12,4.8-16.8-1.2
	c-0.6-3-1.1-6-0.3-9.1c0.9-3.3-1.3-6.4-1-9.7c-2.8-5.5-2.2-11.8-3.8-17.6C132.6,227.9,133.2,224.7,133.5,221.5z"/>
<path class="st4" d="M462.4,628.5c1.8,3.1-0.5,4.9-1.6,6.2c-2.5,2.9-4,6.4-6.5,9.3c-1.1,1.3-2.2,2.3-3.7,3c-3.7,1.7-7.6,3-11.4,4.3
	c-5.8,2-11.7,2.2-17.7,2c-5-0.1-9.2-2.3-13.5-6.6c0-0.6,0-1.4,0-2.2c0-0.8,0-1.6,0-2.4c4-3.6,5.7-8.6,8.5-12.8
	c0.8-1.2,1.3-2.9,2.8-3.3c1.6-0.4,3.5-0.6,5.1-0.2c3,0.8,5.7,0.6,8.7-0.1c2.7-0.6,5.7-0.7,8.4,0c3,0.8,6.2,0.5,9.2,1.7
	C454.5,628.9,458.5,628.2,462.4,628.5z"/>
<path class="st4" d="M395.4,360.7c-4.9-3-10.1-5-16-5.2c-3.4-0.1-5.9-2.7-9-3.8c-1.4-0.5-1.2-1.8-1.9-2.6c0.5-1.3,1.3-2.5,1.3-3.7
	c0.1-3.8,2.3-5.6,5.8-6.8c2.4,0.6,5,1.2,7.6,2.5c3.4,1.8,7.3,2.2,11,1c1.5-0.5,2.9-0.5,4.3-0.2C402.8,349.1,401.8,355.1,395.4,360.7
	z"/>
<path class="st5" d="M822.3,603.1c-1-1.3-1.1-3.1-0.2-4.2c2.5-3.2,2.4-7.1,3.5-10.6c1.3-4.3,2.4-8.8,3.5-13.1
	c1.3-5,3.4-9.9,3.6-15.2c0.1-1.6,0.4-3.3,1.1-4.8c1.5-3,1.1-5.8-0.5-8.4c-1.3-2.2-1.9-4.5-1.7-7.2c-4.3-1.4-8.2-3.1-12.7-3.4
	c-4.5-0.3-8.1,2.7-12.6,2.3c-4.3,3.1-5.2,8.1-6.5,12.7c-0.4,1.4-0.7,2.8-1.1,4.3c-0.7,3.2-1.8,6.2-2.2,9.5c-0.5,3.2-1.5,6.4-2.9,9.2
	c-2.4,4.9-3.2,10.3-5.7,15.1c-2.7,5.2-5.3,10.5-9.5,14.8c-0.7,0.7-1.4,1.3-1.8,2.3c-1.3,3.6-4.2,6.2-6.4,9.2
	c-1.6,2.2-3.9,3.5-6.2,3.5c-5.9,0-11.7,1.6-17.7,1.1c-1.9-2.4-0.2-4.7,0.7-6.4c1.7-3.4,2-7.2,3.6-10.6c1.6-3.2,3-6.5,4.3-9.9
	c1.6-4.1,1.9-8.6,3.5-12.7c2.1-5.3,3.2-10.9,3.2-16.7c0-1.2,0.5-2.3,0.7-3.4c0.8-3.9,0.4-7.6-3.5-10.3c-3.9,0.7-7.3-2-11.1-2.6
	c-4.1-0.6-8.1-0.9-12.2,0.4c-1.6,0.5-2.9,1.2-3.5,2.5c-2.2,5.4-6.3,9.6-8.5,15c-1.7,4.1-3.8,7.9-6.1,11.7c-2,3.3-3.2,7.1-4.9,10.6
	c-1.7,3.4-3.9,6.3-5.7,9.6c-3,5.5-7.1,10.2-11.5,14.7c-2.2,2.2-4.1,4.6-6.9,6c-0.9,0.5-1.3,1.5-1.8,2.3c-2.5,3.3-5.8,4.9-9.9,5.8
	c-7.4,1.6-14.9,0.4-22.3,0.9c-1,0.1-1.9-0.3-2.9-0.6c-4.2-1.3-8.5-2-12.9-2.5c-3.7-0.4-7.4-1.3-10.9-2.6c-6.6-2.4-12.9-5.5-18.7-9.5
	c-3.1-2.2-6.6-3.6-9.3-6.3c-2.6-0.1-4.5-1.5-6.5-3.1c-0.8-0.7-2.1-0.4-3.1-1.3c-2.5-2.6-6-4.2-8-7.4c1.1-1,2.5-0.4,3.7-0.5
	c1.2-0.1,2.2-0.2,3.3-0.7c2.3-1.2,4.5-2.5,7.4-2.4c1.8,0,3-2.8,6.2-1.2c1.6,1.5,4.1,3.5,5.6,6.3c0.4,0.7,1,1.5,1.7,1.8
	c5,1.6,9.1,5.2,14.3,6.2c2.3,0.4,4.6,0,6.9,0.6c1.3,0.4,2.9,0.4,4.2,0.9c1.2,0.4,2.1,0.1,3.2,0.1c10.3-0.4,18.9-5.9,28.4-8.7
	c3.4-1,6.3-3.3,8.7-6.1c2.7-3.1,5.2-6.2,7-9.9c1.6-3.2,3.8-6,4.9-9.5c1.5-4.8,2.8-9.5,1.3-14.5c-0.3-1.1-0.5-2.3-0.3-3.4
	c0.5-5.2-0.9-10.1-2.7-14.8c-1.3-3.3-2.3-6.7-3.4-10.1c-0.4-1.2-1.3-1.9-2-2.8c-1.8-2.1-3.9-3.9-5.5-6.4c-1.4-2.2-4.2-3.7-6.6-5
	c-3.8-2.1-7.9-3.9-11.9-5.7c-0.9-0.4-1.9-0.3-2.9-0.4c-1.8-0.1-3.7,0.1-5.5,0c-5.6-0.6-10.6,1.7-15.6,3.6c-5,1.9-9.1,5-12.7,8.9
	c-1.5,1.6-3,3.1-4.5,4.7c-3.4-0.6-6.7-0.6-9-3.5c-0.8-1-2.1-1.7-3.5-1.5c-2.1,0.2-4.1-0.5-5.7-1.4c-4.5-2.3-9-1.9-13.5-1.2
	c-7,1.1-12.9,3.5-19.6,7.3c-0.8,0.5-1.8,0.7-2.9,1.2c-2.5-3.4-4.2-7.3-3.3-11.4c1.3-5.4,1.6-11,2.6-16.4c0.7-3.8,1.5-7.7,1.9-11.6
	c1.3-11.7,3-13.7,7.5-22c1.5-2.8,2.4-6,4.7-8.5c1.2-1.3,2.4-2.6,3.6-3.9c4-0.5,7.6,0.4,11.2,1.6c2.7,1,5.8,1,8.1,3.1
	c4.8-0.5,8.8,2.4,13.3,3.4c4.1,0.9,8.1,2.6,11.9,4.3c1.9,0.8,3.6,1.6,5.7,1.4c2.6-0.3,4.8,0.5,7,1.9c1.4,0.9,3,1.4,4.7,1.1
	c3.7-0.7,7.1,0,10.3,2.1c1.9-1.1,3.6-1.3,5.6-0.3c3.6,1.6,7.6,2.1,11.5,2.2c7.5,0.1,15,0.1,22.5,0.1c2.3,0,4.5-0.4,6.7-1.4
	c2.5-1.2,5.2-1.8,8.1-1.7c3.8,0.2,7.8,0.6,11.5,0c6.9-1.2,14.1-0.5,20.9-2.8c4.5-1.5,9.5-1,13.9-3.1c4.7-2.3,10-1.5,14.6-3.9
	c1.5-0.7,2.8,0.6,4.4,0.9c3.2-0.7,5.5-3.3,8.5-4.7c3-1.3,5.5-3.3,9-3.6c3-0.3,5.5-2.2,7.4-4.7c1.7,0,3.3,0,4.7,0
	c1.2-1.1,2.2-2,3.3-3c0.5,0,1.2-0.1,1.8-0.1c1.4,0,2.8,0.8,4.2,0c3.3-1.9,7-2.7,10.2-4.8c1.9-1.2,4-2,6.4-2.4
	c4.5-0.7,8.6-3.1,13.1-4c1.1-0.2,2-1.6,3-2.6c1.3-1.3,2.5-2.7,3.7-4c7-0.5,13-3.6,19.3-5.8c6.4-2.2,11.5-7,18.1-8.6
	c1-0.2,1.8-1.4,2.7-2.1c3.6-2.9,7.7-4.4,12.7-3.5c4.3,5.5,8,11.6,9.6,18.7c1.4,5.9,2.9,11.7,3.7,17.7c0.3,2.4,0.5,4.9,1.2,7.2
	c2.5,8.2,2.9,16.5,2.9,25c0,3.3-0.7,6.6,0.7,9.8c-1.6,3.4,0.3,7.3-1.5,10.7c-0.3,0.6-0.3,1.3-0.2,2c0.2,8.1-3,15.2-5.9,22.5
	c-1.9,4.6-4.8,8.5-7.1,12.8c-1.3,2.4-3.4,4-5.4,5.8c-0.5,0.5-1.3,0.2-1.9,0.1c-0.9-0.7-0.8-1.8-0.8-2.7c0-3.2,0-6.3,0-9.5
	c0-3.3,0.1-6.6-1.5-9.7c-0.2-0.4-0.5-0.9-0.5-1.4c0.4-5.7-3.7-7.6-8-9.3c-1.1-0.4-2.4,0-3.2-0.8c-7.3,1.6-12.7,5.6-16.4,11.8
	c-0.8,1.4-1.4,2.8-1.5,4.6c-0.3,3.9-1.1,7.8-1.6,11.6c0,0.3-0.3,0.7-0.2,0.9c1.8,5.6-1.3,10.9-1.2,16.4c0,2-1.4,3.9-1.9,6
	c-2,7.9-3.5,15.9-7.3,23.2c-1.9,3.6-4,7.2-7.1,10c-0.5,0.4-1.1,0.9-1.4,1.4c-2.7,5.8-8.5,7.1-13.6,9.4
	C826.4,602.1,824.7,604.1,822.3,603.1z"/>
<path class="st0" d="M736.4,559.2c2.8-1.4,5.5-2,8.3-1.8c1.3,0.1,2.6-0.1,3.9-0.4c3.7-0.9,6.7,1.8,6.4,5.5
	c-0.4,5.2-1.2,10.3-2.9,15.3c-0.9,2.6-1.3,5.4-1.3,8.2c0,2.6-0.6,4.9-1.6,7.1c-2.2,5.4-4.2,10.9-7.4,15.9c-1,1.6-1.5,3.6-2.3,5.4
	c-2,5-6,8.3-11.3,9.3c-2.1,0.4-4.6,0.1-6.6,0.7c-3.3,0.9-6.5,0.9-9.8,0.9c-5.8-0.1-11.4,1.1-17.1,1.9c-1.3-0.7-1.3-1.7-0.6-2.8
	c0.2-0.3,0.4-0.5,0.7-0.7c3.9-3.4,6.8-7.6,10.3-11.3c1.9-2,4.4-3.7,5.3-6.5c0.9-2.7,4-3.7,4.5-6.9c0.3-1.9,2.8-3.1,3.9-5
	c2.8-5,5.5-10.1,7.7-15.3C729.5,571.8,733.2,565.5,736.4,559.2z"/>
<path class="st0" d="M827.6,547.9c0.2,5.8-0.3,11-1.6,16.4c-1.5,6-2.9,11.9-4.9,17.8c-1.3,3.8-2.3,7.8-3.5,11.7
	c-1.6,5.1-4,9.9-6.7,14.2c-9.8,2.5-19.3,4.5-29.4,7c1.2-4.2,3.1-7,5.4-9.4c1-1,1.5-1.9,2-3.2c1.7-3.9,4.3-7.3,5.9-11.3
	c1.8-4.4,4.1-8.5,5.9-12.9c1.3-3.3,2.3-6.8,3-10.3c1-5.3,2.9-10.3,4.5-15.4c1-3.1,3.5-5.1,6.8-6.2
	C818.8,548.7,823.4,544.9,827.6,547.9z"/>
<path class="st4" d="M715.8,446.1c-0.4,4.4,2.7,8.4,1.9,13.1c-1.2,0.5-2.4,1.2-3.7,1.3c-11.2,0.9-22.3,2.8-33.5,2.1
	c-2.8-0.2-5.7,0-8.1-1.5c-1.6-1-3.8,0.2-5.1-1.9c0-0.1-0.3-0.3-0.3-0.7c-0.6-3.1,1.7-5.6,1.9-8.6c0.2-2.8,0.6-5.3,1.7-8
	c1.4-3.2,3.4-5.8,5.6-8.5c2.9-3.5,6.6-4.6,10.7-5c3-0.3,6,0.1,9-0.1c2.1-0.1,4.1,0.5,5.6,1.5c4.4,2.9,8.7,6,10.7,11.2
	C712.9,443.2,714.3,444.6,715.8,446.1z"/>
<path class="st4" d="M584.9,439.6c0-8.6,5.5-14.1,9.9-20.4c1.9-0.9,4.2-1.3,6-3.4c1.5-1.8,4.4-2,6.9-2.2c1.5-0.2,3,0,4.6,0
	c2.5,2.5,5.4,4.4,8.5,5.9c2.8,1.4,5,3.1,6.2,6c0.9,2.1,2.6,3.7,3.6,5.8c1.4,3,2.3,6,2.4,9.3c0.1,3.7,0,7.3,0,10.9
	c-0.4,1.3-1.3,2-2.4,2.6c-2.9-0.8-5.9-1.5-9-1.7c-2.2-0.2-4.9-0.3-6.8-2.4c-0.6-0.7-1.7-1.3-2.6-1.3c-5.1-0.2-9.2-3.4-13.9-4.4
	C593.6,443.4,589.6,441.4,584.9,439.6z"/>
<path class="st0" d="M859.1,583.3c-0.8-0.5-1.3-0.9-1.4-2c3.6-3.1,2.7-7.9,3.8-12.1c0.3-1.3,0.6-2.5,1.1-3.7
	c1.2-2.9,1.7-5.9,2.1-8.9c0.7-4.5,0.5-9.2,2.5-13.4c0.6-1.3,1.3-2.8,1.3-4.2c-0.3-4.7,1.1-9.2,1.2-13.8c1.4-1.6,2.5-3.4,3.3-5.6
	c1.8-1,3.6-2,5.4-3c2.3,0,4.4,0,6.4,0c0.3,0.3,0.8,0.5,0.8,0.7c0.9,6.3,4.8,12.3,2,19.1c-0.3,0.7-0.2,1.7-0.1,2.5
	c0.8,6-0.9,11.7-2.2,17.4c-0.7,3.2-3.1,5.8-5.3,8.1c-4.2,4.4-8.5,8.8-12.9,12.9C864.7,579.6,861.8,581.3,859.1,583.3z"/>
<path class="st4" d="M836.7,398.9c-2.6,10.1-7.4,19.6-11,29.2c-4,1.2-7.5,2.7-11.1,3.4c-3.8,0.7-7.1,2.3-10.7,4.1
	c-1.7-2.3-2-5-2.2-7.7c-0.3-3.3,0.3-6.6-0.9-9.8c-0.5-1.1-0.5-2.7,0.2-3.9c0.7-1.1,0.8-2.2,0.6-3.3c-0.3-2.7,1-5,2.4-6.8
	c6.6-8.7,18.6-13.3,29.3-8.6C835.1,396.1,836.1,397,836.7,398.9z"/>
<path class="st4" d="M894.7,396.2c-0.5,1.8-1.4,2.6-2.9,2.4c-1.8-0.2-3.3,0.5-4.6,1.4c-5.2,3.4-11.2,5.2-16.5,8.5
	c-4.2,2.6-9.1,3.9-13.3,5.7c-1.2-0.6-1.6-1.2-1.6-2.1c0.2-8.6,3.4-15.9,9.8-21.7c2.5-2.3,5.3-4.3,8-6.5c4.6-0.8,8.6,0.5,12.7,2.6
	C890.3,388.6,893,391.7,894.7,396.2z"/>
<g>
	<path class="st2" d="M652.6,757c1.2,8.7-2.6,14.8-8.2,20.1c-2.7,2.6-2.7,2.6-3.5,5.2c1.9,1.5,4.5,1.6,6.6,2.7c3.9,2,9,1.9,11.8,6.1
		c4.4,1.5,6.9,5.5,10.4,8.2c3.9,2.9,5.7,7.2,7.8,11.3c2.6,5,1,10-2,13.2c-3.3,3.6-6.6,7.3-11.4,10.1c-2-0.1-4.6,0.7-7,1.6
		c-4.3,1.5-8.8,2.1-13.4,2.7c-5.3,0.7-10.7,0.7-15.9,2.7c-3.8,1.4-7.9,2.4-12,2.1c-1.8-0.1-3.2,0.6-4.7,1.3c-3.5,1.7-6.9,3.7-10.6,5
		c-1.7,0.6-3.2,0.6-4.9,0.7c-2.6-2.1-5.3-4.2-7.9-6.4c-1.8-1.6-2.8-3.6-2.9-6.1c-0.1-1.8-0.3-3.7,0-5.5c0.7-6.2-1.1-12.1-2.2-18
		c-0.6-3.2-0.7-6.2-0.7-9.4c0-8.3-1.7-16.4-1-24.7c-1.4-3.7-1.1-7.5-1-11.3c0.2-4.8,1.3-9.5,1.1-14.3c-0.1-1.3,1.1-2.7,1.9-4.4
		c5.8,1.4,10.8-2.3,16.5-2c0.9,0.1,1.9-0.5,2.8-1c4.5-2.2,9.4-2.8,14.3-3c1.5,0,3,0.1,4.5,0c5.3-0.1,10.3,0.4,15.4,2.5
		c3.6,1.5,7.2,3,10.6,4.9C649.4,752.9,651.3,754.7,652.6,757z"/>
	<path class="st2" d="M62,772.7c8,1.4,16,2,24.3,0.8c8.3-1.2,16.1-4.3,24.2-5.7c4-0.7,7.6-3.1,11.9-2.6c3.5,3.1,3.7,3.4,3.9,8.3
		c-1.9,1.5-2.9,3.9-3.9,6.1c-2.3,0.1-3.3-1.7-5.4-2.3c-1.5,1.3-3.4,2.2-5.6,1.8c-1.7-0.3-3.2,0.8-4.8,1c-7.3,0.9-14.4,2.9-21.8,3.2
		c-3.6,0.2-7.1,1-10.7,0.8c-3,2.2-4.9,5.1-7,7.8c-1.3,1.7-2,3.7-1.8,6c0.2,2.5,0.1,5,0,7.5c0,3.8,0.1,7.5-0.9,11.3
		c-0.5,1.8-0.1,4-0.1,5.6c1.1,2.2,2.9,2.3,4.4,1.7c5.7-2.2,11.8-2.3,17.6-3.7c2-0.5,4.3,0,6.5-0.1c1.8-0.1,3.6,0.4,5.4-0.5
		c1.1-0.6,1.7,0.7,2.6,0.8c0.7,6,0.5,6.6-4.3,10.7c-2.4-0.5-4.9-1.1-7.4-1.7c-2-0.5-3.9-0.7-5.6,0.9c-0.5,0.5-1,0.9-1.8,0.8
		c-2.8-0.4-5.1,0.8-7.5,1.9c-2.4,1.1-5,1.4-7.7,1.2c-1.2-0.1-2.3-0.2-3.3,1.5c1.6,3.4,2.3,7.4,1.9,11.6c0,0.5,0.1,1,0.3,1.4
		c2.5,4.1,2.9,8.7,2.7,13.3c0,0.6,0.2,1.3,0.4,1.9c0.1,0.3,0.4,0.5,0.7,0.7c4.2,0.7,4.2,0.7,5.8,2.5c-0.7,2.5-3,2.8-4.8,3.3
		c-1.6,2.2-1.9,5.4-5.5,5.5c-6.2-1.3-7.1-6.7-8.5-11.8c-1.4-5-1.2-10.1-1-15.2c0.1-6.8-0.4-13.5-1.8-20.1c-0.3-1.3-0.5-2.8-0.1-4
		c1.5-3.9,0.8-7.9,0.9-11.8c0.1-5.5-0.2-11,0.1-16.5c0.4-6.7,1-13.4,3.1-19.8C58.2,775.1,59.1,773.1,62,772.7z"/>
	<path class="st2" d="M181.7,870.9c-1.8,0.3-3.4,0.5-5.3-0.3c-4.1-7.6-10-14.2-14-22c-2.4-4.6-5.7-8.8-9-12.7
		c-0.8-1-2.4-1.5-3.9-1.8c-3.6-0.6-7.3,0.4-11-0.8c-2.1-0.7-4.1,0.9-5.9,2.3c0,2.4,0,4.9,0,7.7c1.1,2.3,3.6,4.3,4.5,7.5
		c-1.7,1.5-3.6,3.1-5.5,4.7c-1,0.9-2.5,0.9-4.1,0.3c-1.1-1.9-2.5-3.7-3.9-5.1c-0.4-8-1.7-15.7-1.1-23.5c-1.7-4.4,0-8.8,0.1-13.2
		c0.1-3.8,1.2-7.7,2.3-11.5c1-3.5,4.2-5,7.1-6.3c6-2.8,12.1-5.8,18.8-6.5c4.6-0.5,9.5,0.2,14,1.8c1.6,0.6,2.8,2.3,4.1,3.5
		c0.9,0.9,0.5,2.2,0.6,3.6c2,1.8,3.4,3.9,4.1,6.8c0.6,2.5,0.9,5.2,2.6,7.4c0.4,6.3,1.3,12.7-4.3,17.5c-1.5,1.3-2.9,2.7-4.3,4.1
		c0,1.4,0,2.7,0,4.3c3.7,2.1,2.5,6.6,4.3,9.9c0.6-0.1,1.2-0.3,2.2-0.5c-0.2,4.3,4.5,4.3,6.2,7.8c-0.3,3,2.2,5.3,4,7.7
		C184.7,866.6,184,868.9,181.7,870.9z"/>
	<path class="st2" d="M506.4,800.3c1,1.8,2.1,3.4,1.3,5.6c-2.8,2.1-4.3,5.7-7.6,7.8c-1.7,1.1-3,3.1-3.9,5c-1,2.1-2.4,3.9-3.7,5.8
		c-2.5,3.4-4.2,7.2-6,11.1c-3.1,7-6.1,14-9.3,21c-0.4,1-0.8,2-1.7,2.3c-1.9,0.5-1.7,2.2-2.3,3.5c-0.3,0.6,0.2,1.5-0.2,1.9
		c-3.4,4.3-3.8,9.5-4.5,14.7c-0.4,2.7-0.4,4.8,1.6,6.9c-1.2,2.2-1.1,4.8-3.2,6.8c-3.2,1.2-5.4-0.8-7.7-3.1c0.1-3.1-0.8-6.4,0.8-9.6
		c0.3-0.7,0.2-1.6,0.1-2.5c-0.4-3.7,0.7-7.2,1.4-10.7c0.6-2.9,1-5.8,1.5-8.6c0.7-4.2-0.7-8.4-1.9-12.5c-1.2-4-3.8-7.6-5.1-11.5
		c-1.7-5.2-3.9-10.3-4.8-15.8c-0.5-2.7-1.3-5.4-1.9-7.8c0.4-2.2,2.3-2.5,3.8-3.5c0.8,0.3,1.8,0.6,2.6,1c3,1.5,5.4,3.2,5,7.4
		c-0.1,1.4,0.4,3.4,1.3,5.1c2.1,4.2,4.2,8.5,5.5,13c0.2,0.8,0.9,1.3,2.1,1.4c1.9-2.2,2-5.4,3.8-7.7c1.6-2.2,2.2-5,3-7.7
		c1.1-3.5,1.8-7.3,4.8-10c0.7-0.6,1.2-1.7,1.4-2.6c0.8-2.9,3-4.7,5-6.7c2-2,4.3-3,7.2-1.6c0.4,0.2,1,0.5,1.4,0.4
		C499.4,798.6,502.7,800.3,506.4,800.3z"/>
	<path class="st2" d="M335.4,848.3c-4.8-0.3-7.3-3.6-9.8-6.5c-2.6-3.1-4.9-6.5-7.2-9.9c-1.5-2.3-2.3-5.1-4.8-6.8
		c-0.4-0.3-0.8-0.6-1.5-1.1c-2.5,3.5-3.8,7.1-2.5,11.4c0.2,0.6,0.5,1.3,0.5,1.9c-0.7,4.8,1.5,8.9,2.9,13.5c-1,1.3-2.1,2.8-3.2,4.2
		c-4.2,0-7.7,3.1-12.3,1.9c-1.2-0.7-2.3-1.9-3-3.1c-1.2-3,0.4-5.5,0.9-8c0.9-4.3,0.8-8.5,0.8-12.8c-0.1-4.5,0.9-8.8,1.7-13.1
		c0.5-2.4,0.2-4.9,0.3-7.4c0-1.8-0.1-3.6,0.9-5.3c1.8-3.2,1.9-6.8,2.9-10.3c0.4-1.5-1.7-2.6-0.3-4.1c4-0.9,4.9-0.6,6.5,2.3
		c1.4,2.6,2.8,5.2,4,7.9c0.9,2,1.9,3.8,3.5,5.3c2.1,2,2.3,5,3.5,7.4c0.3,0.6,0.5,1.2,0.8,1.9c1.1,0.6,2.3,1.1,3.2,1.6
		c1.9-0.6,2.3-2.3,2.7-3.6c2.4-9.1,4.6-18.3,7-28.3c2.3-1.6,4.5-4.5,6.1-8.3c2.7,1.9,4,4,4.2,7.1c0.3,5.7-0.6,11.1-3.1,16.2
		c-1,1.9-0.4,4-1.3,5.7c-1.1,2.1,0.1,4.4-0.8,6.3c-0.8,1.8-1.3,3.6-2,5.4c-1.6,4.3-0.4,8.2,0.6,12c0.8,3.2,0.5,6.5,1.5,9.6
		C338.9,843.9,336.7,845.9,335.4,848.3z"/>
	<path class="st2" d="M944,783.5c-1.5,2.2-2.3,4.7-4.4,6.3c0,2.5,0,5,0,7.6c2.7,4.5,7.5,6,12.1,7.7c6.4,2.3,12.2,5.6,17.6,9.6
		c5,3.7,6.3,11,3.2,16.3c-0.6,1.1-1.4,1.7-2.3,2.4c-3.6,2.9-8.1,4.4-11.7,7.2c-0.7,0.6-1.6,0.4-2.4,0.6c-7.2,2.1-14.3,4.2-21.5,6.5
		c-3.6,1.2-7.1,2.8-10,5.8c-4-1.4-7.3-3.6-10.4-6.8c4.7-3.5,9.1-6.7,14.4-8.7c4.9-1.8,10-3.1,14.8-5.1c2.2-0.9,4.4-1.3,6.5-2
		c2.6-1,5.8-1.2,7.9-3.5c0.8-0.9,2-1,3.1-1.5c1.9-0.8,2.3-1.9,2.5-5.2c-2.2-0.2-4-1.5-5.6-3c-1.7-1.6-3.9-2.7-6-3.4
		c-2.2-0.7-4.1-1.9-6.2-2.8c-0.9-0.4-1.8-1.3-2.7-1.3c-3.7,0.3-5.6-3.1-8.6-4c-4.4-5.1-7.9-10.5-6.4-17.7c0.1-0.6,0.6-1.2,0.6-1.8
		c0.3-7.4,5.5-11.1,10.9-14.7c0.8-0.5,1.6-1.2,2.5-1.6c2.8-1.3,5.6-2.6,8.9-2.4c3.6,0.2,7.3,0.1,11,0.1c0.1,0,0.3,0.2,0.4,0.2
		c2.5,3.8,2.5,3.8,2.3,17.9c-1.4,2.1-3.6,3.7-5.3,5.6c-1.6-1.1-2.3-2.6-2.6-4.3c-1-4.8-2.2-5.6-7.1-5.6
		C947.4,782.1,945.8,783.3,944,783.5z"/>
	<path class="st2" d="M388.8,814c1.1-5,2.5-9.5,2.2-14.3c-0.1-1.6,0.9-2.8,1.1-4.2c0.7-7,3.4-13.7,3-20.8c-0.1-2,0.9-3.8,1.3-5.7
		c0.5-2.3,1.6-4.6,2.1-6.9c3.1-1.6,6.1-0.4,8.7-0.7c1.8,0.8,1.9,2.1,2,3.5c0.4,5.9-0.8,11.6-3.3,16.7c-2.1,4.4-2.6,9.1-3.7,13.6
		c-0.3,1.3-0.5,2.5-0.9,3.8c-2,6.4-1.1,13.1-1.1,19.7c0,2.2,1.7,4.2,2.2,6.5c0.4,2,0.7,3.9,0.8,5.8c0.1,3.2,0.4,6.3,1.6,9.2
		c0.7,1.8,0.1,3.6,0.5,5.4c0.5,1.3,2,1.5,3,2.4c-0.5,2.7-2.2,4.5-3.8,6.3c-0.9,1-2,0.9-3.6,0.7c-1.2-3.2-5.4-3.5-7-6.7
		c-1,0-1.9-0.3-2.6,0c-2.5,1.2-4.8,1-7-0.5c-0.4-0.3-0.9-0.4-1.3-0.6c-2-0.6-3.9,1.2-5.8,0.5c-2.1-0.8-3.9-0.4-5.5,0.7
		c-3.3-1.2-6.3-2.7-9.8-2.1c-2.9-3.2-7-5-9.5-8.6c-0.6-2.6,0.1-4.8,1.7-7c3.1-4.3,6.5-8.3,11.6-10.4c0.1-0.1,0.4,0,0.5-0.1
		C372.7,814.9,380.7,815,388.8,814z"/>
	<path class="st2" d="M876.7,847.8c-1.2-1.2-2.7-2.5-3.9-4.1c-2.5-3.2-5.9-5-9.1-7.3c-3.9-2.7-7.7-5.8-10-10.3c-0.7-1.3-1.3-2.6-2-4
		c-5.2-10.7-3.9-21.2,2-31c2.1-3.5,5.4-6.5,8.8-9.1c3.2-2.5,6.9-4.2,10.2-6.5c2.9-1.9,6.5-2,9.9-2.5c2-0.3,4-0.1,6,0
		c6.6,0,12.2,5,14.1,11.4c1.2,3.9,0.8,7-1.7,10c-0.7,0.9-1.1,2-1.4,3.1c-0.3,1.2-1,2.1-2,2.7c-2.7,1.8-5.6,3.4-7.8,5.9
		c-1,1.2-2.7,0.6-4,1.8c-1.9,1.8-5.1,1-7,3.8c-1.3,2-4.7,1.8-7.2,2.4c-3.8,0.9-7.7,1.3-11.5,1.9c-0.4,0.6,0.2,0.9,0.3,1.3
		c0.7,5.1,4.3,8.2,7.9,11.5c4.2,3.9,9,6.7,13.9,10c0.3,2.4,2.1,4.9,0.3,7.4C881.2,848.2,879.1,848.5,876.7,847.8z"/>
	<path class="st2" d="M814.9,783.5c-0.7,0.6-1.2,1-1.9,1.6c-3.3-1.3-6.7-2.4-10.4-1.9c-0.8,0.1-1.8-0.1-2.4,0.3
		c-2.9,1.8-6.4,2.6-9.2,4.6c-4.4,3.2-4.5,6.9,0,10.1c1.7,1.3,3.5,2.3,5.4,3.3c2,1,4.1,2.1,5.9,3.6c2.3,1.9,5.1,2.9,7.8,4.1
		c4.8,2,9.3,4.7,13.6,7.6c1.4,0.9,2.3,2.3,2.9,4.4c-1.2,2.6-2.5,5.6-4.5,8.3c-1.2,1.6-2.2,3.2-4.1,4.1c-0.1,0.1-0.3,0.2-0.4,0.3
		c-3.5,4.7-8.5,7-13.5,9.6c-1.5,0.8-2.9,1.5-4.4,2c-1.5,0.6-3.1,0.9-4.4,2.1c-0.9,0.8-2.2,1.5-3.6,1.5c-3.3-0.1-5.5,1.6-7.6,3.9
		c-1.6,1.8-3.4,3.5-5.4,4.8c-2.5,1.6-5.4,1.4-8.3,1.1c-2.6-1.8-4-4.6-5.2-7.1c0.1-2.7,2.1-4.1,3.8-4.3c3.7-0.4,6-3.2,9.1-4.5
		c6.6-2.7,12.8-6.5,19.6-8.8c1.9-0.6,3.5-1.5,5.1-2.7c2.1-1.6,4.3-3,6.6-4.2c1.4-0.8,2.4-1.8,3-3.2c0.8-2.2-0.4-5-2.6-5.8
		c-0.7-0.3-1.9,0.1-2.4-0.3c-4-3.6-9.4-4.4-13.7-7.3c-0.6-0.4-1-1.1-1.6-1.1c-3.7-0.4-6-3.4-8.8-5.3c-6.2-4.1-8.1-10.5-7.5-17.6
		c0.1-1.3,0.7-2.7,2-3.8c1.1-0.9,2.3-1.9,3.5-2.7c3.2-2.1,6.4-4.5,10-5.9c4.9-1.9,10.1-2.7,15.2-0.7c1,0.4,1.9,0.4,2.9,0.7
		c1.5,0.4,2.7,1.4,3.3,2.8C813.4,779.1,814.1,781.1,814.9,783.5z"/>
	<path class="st2" d="M736.8,785.7c0.9-0.9,1.8-1.7,2.7-2.5c2.7,0.9,5.5,1.7,7.7,3.4c1.4,1.1,1.7,3.1,1.7,5c0,2.8,1.4,5.4,1,8.3
		c-0.6,4.2-0.9,8.5-1.7,12.7c-0.5,2.5,0,5-0.5,7.8c-2.8,2.9-3.5,7.3-5.8,10.8c-3.6,5.5-8.7,9.1-14,11.9c-5.7-0.7-10.8-2.1-15.3-3.2
		c-2.7-2.6-5.5-4.6-7.4-7.2c-2.4-3.3-4.3-7.2-4.9-11.1c-0.6-3.7-1.7-7.4-1.3-11.3c0.6-6,1.3-12.1,2.1-18.1c0.3-2.1,1.7-3.5,3.8-4
		c0.9,0.3,1.8,0.6,2.8,0.9c3.5,1.3,5.1,3.7,4.2,7.2c-1.4,5.8-2.3,11.6-1.8,17.5c0.3,4.5,0.8,9.1,3.2,13.2c0.9,1.4,1.7,2.8,3.2,3.9
		c0.4,0,0.8,0.1,1.3,0.2c7.2,1.3,11.5-2.8,15.1-8.1c0.7-1,1.6-1.7,2.2-2.6c0.8-1.2,1.7-2.3,1-4c-0.5-1.3,0-2.5,0.5-3.8
		c1-2.4,1.4-5,1.2-7.7c-0.3-4.6,0.4-9.2-1-13.8C736.4,789.6,736.8,787.8,736.8,785.7z"/>
	<path class="st2" d="M251.4,837.4c-0.3,6.4,2.9,11.5,8.6,13.7c4,1.5,4,1.5,6,3.8c-1.9,3.6-5.1,4.9-8.3,3c-2.1-1.3-4.3-2.4-6.4-3.6
		c-2.6-1.6-4-4.4-5.8-6.6c-1.6-1.9-3.4-4-3.6-6.9c0-0.6-0.3-1.4-0.8-1.8c-3.3-2.9-2.9-6.8-2.9-10.6c0-1.9-0.1-3.9-0.5-5.9
		c-0.5-2.2,0-5.1,1.1-7.1c1.6-2.9,2.8-5.9,4.2-8.8c2.3-4.8,6.3-7.6,10.3-10.3c3.2-2.1,6.9-3,11.1-2.5c3.2,0.4,6.3,0.1,9.2,1.9
		c6.6,4.1,9.5,12.5,6.4,20.2c-3.3,8.1-9.1,13.1-17,15.8c-3.2,1.1-5.9,3.6-9.5,3.9C252.7,835.6,252,836.8,251.4,837.4z"/>
	<path class="st2" d="M443.2,755.3c3.2,3.1,3.6,5.9,1.1,10c-3,5.1-4.8,10.6-6.4,16.2c-0.9,3.3-2,6.5-3.4,9.6
		c-1.8,3.8-1.6,8-2.4,11.9c-0.4,1.7-0.1,3.5-0.9,5.3c-0.8,2,0.9,3.7,1.6,5.9c-0.1,0.3-0.6,0.9-0.6,1.5c-0.7,7.8-0.5,15.5,2,22.9
		c0.8,2.3,2.2,4.4,1.5,7.5c-0.9,0.8-2.1,2-3.2,3.1c-4.5-0.8-6.1-4.1-6.4-7.8c-0.2-2.8-0.6-5.5-1.1-8.3c-0.5-2.8-1.7-5.5-0.1-8.5
		c0.8-1.6-1-3.3-1-5.2c0.2-6.3,0-12.6,0.1-18.9c0-3.1,0.9-6.1,1.3-9.2c0.3-2.3,0.8-4.5,0.6-6.8c-0.2-4.2,0.5-8.2,1.7-12.1
		c0.3-1.2,0.5-2.3,0.3-3.4c-0.5-3,1-5.8,1.2-8.8c0.2-2.8,3.1-4.6,6.1-4.8c0.3,0,0.7,0,1,0C438.7,755.3,441,755.3,443.2,755.3z"/>
	<path class="st2" d="M203.7,849.2c-2.4-10.2-1-19.6-1.4-29c-0.1-2.7,0.6-5.2,1.8-7.4c4.3-2.1,6.7,1.9,9.9,2.6
		c0.2,1.9,0.4,3.4-0.4,5c-2.1,4.2-2.9,8.8-2.3,13.3c0.7,5.2,1.2,10.7,4.8,15.2c-1.8,3.3-3.7,6.3-8.8,4.9
		C205.7,852.9,205.9,849.8,203.7,849.2z"/>
	<path class="st2" d="M214.2,787.4c0,1.6,0,2.8,0,3.9c-3.4,3.9-4.6,4.5-8.4,4.7c-0.7-2.7-4-3-5.3-5.4c-0.2-3.8-0.2-3.8,1.3-7.4
		C206.4,782.8,210.1,785.2,214.2,787.4z"/>
	<path class="st6" d="M667.5,812.5c-0.9,7-6.2,8.6-11,10.7c-1.9,0.8-4.2,1.1-5.9,2.2c-2.4,1.6-5.1,0.9-7.6,1.6
		c-5.2,1.4-10.6,2.3-16,2.3c-0.8,0-1.8-0.2-2.4,0.2c-4.3,2.5-9.5,2.3-13.9,4.3c-1.6,0.7-3.2,0.4-4.9,0.3c-0.9-1-1.9-2-1.7-3.4
		c0.5-3.1-0.8-5.9-1.3-8.8c-0.5-3-0.9-5.9-0.7-8.8c0.1-2.5-1.4-4.8-0.9-7.4c4-3,7.9-6.3,12.2-9c2.6-1.6,5.6-2.6,8.2-4.2
		c1-0.6,2.8-0.6,3.9-0.2c3.2,1.4,6.5,0.7,9.8,0.9c10.8,0.7,20.5,4.1,28.3,12C665.6,807.4,666.8,809.9,667.5,812.5z"/>
	<path class="st6" d="M630.2,752.9c3.6,1.9,5.7,4.7,9.3,4.7c0.4,0,0.9,0.9,1.4,1.4c-1,3.2-2,6.3-5.1,8.1c-0.4,0.2-0.8,0.6-1,1
		c-1.5,3.8-5.1,5.6-7.9,8c-2.6,2.3-6.1,3.7-9.5,4.8c-1.9,0.6-3.7,1.3-5.4,2.2c-4.1,2.1-8.7,2.6-12.3,5.1c-1.6-0.2-2.7-1-2.8-2.1
		c-0.9-7.4-3.4-14.8-1.8-22.8c2.4-1,4.3-3.3,6.8-4.7c2.4-1.3,5.1-2,7.4-3.6c1.2-0.9,2.5-0.7,3.8-0.7c3.5,0,7,0,10.5,0
		C626,754.2,628.4,754.7,630.2,752.9z"/>
	<path class="st6" d="M132.4,820.6c-0.5-3.8,1-7.2,2.1-10.5c0.7-2.2,2.7-3.7,5-4.5c3.9-1.4,7.2-3.7,10.7-6.3c2.5,0.6,4.8-1.5,7.5-1
		c7.9,9.1,8,9.5,7.5,21.5c-2.6,2.3-5.5,3.8-9.3,3.5c-2.3-0.2-4.7,0-7,0c-1.2,0-2.3,0.1-3.5,1.1c-2-1.8-4.4-2.4-7.2-2.2
		C136.5,822.3,134.3,822.8,132.4,820.6z"/>
	<path class="st6" d="M365.4,837.5c-0.3-0.6-0.6-1.2-0.9-1.8c4-8,18-13.8,26.3-10.6c0.5,2.4,1.4,4.8,1.5,7.5
		c0.1,2.3,2.5,4.3,1.4,7.4c-4.3-0.7-8.5,1.7-12.9,0.1c-0.6-0.2-1.3-0.1-2,0C374,840.7,369.6,839.4,365.4,837.5z"/>
	<path class="st6" d="M888.8,784.1c1.4,1.3,2.5,2.1,3,3.6c-1.9,3.8-3.8,7.3-7.7,9.7c-3.3,2.1-7.5,2.6-10.2,5.8
		c-4.2,0.9-8.4,2.2-12.5,2c-0.8-1-0.9-1.7-0.6-2.2c3.8-6.5,7.6-13.2,15.4-15.8C880.2,785.8,884.4,784.4,888.8,784.1z"/>
	<path class="st6" d="M260.5,803.4c4.5-0.5,8-0.2,10.6,3.2c1,7.2-3.5,11.3-8.8,14.4c-3.2,1.9-6.7,3.2-9.8,5.4c-1,0.7-2.1,1-3.3,0.8
		c-1.1-0.2-1.5-1.1-2.4-2.2C250.6,817.2,254.6,809.7,260.5,803.4z"/>
</g>
<path class="st2" d="M91.4,501.5c-0.1-5.5,0.8-10.8,1.9-16.1c0.2-1,0.3-2.1,0-3c-1.4-3.7-1.2-7.4-0.1-11.1c0.3-1.2,0.3-2.2-0.1-3.4
	c-1-2.7-0.8-5.5-0.1-8.3c0.2-0.8,0.5-1.6,0.5-2.4c-0.5-7.7,2-14.9,3.7-22.2c0.2-1,0.3-2,0.3-2.9c0-4.8,1.3-9.3,3.4-13.7
	c1.3-2.7,1.9-5.9,2.7-8.8c1.1-4.5,3.5-6.9,8.6-7.1c2.8-0.2,5.9-0.2,8.6-1.5c0.2-0.1,0.3-0.2,0.5-0.2c0.7,0,1.4-0.3,2,0
	c3.4,1.5,6.8-0.6,10.1,0.1c2.4,0.5,4.7,1.3,7,2.2c2.2,0.9,3.9,2.4,4.8,4.7c1.8,4.4,2.7,9,3.3,13.7c0.3,2.2,0.5,4.6-0.8,6.8
	c-0.4,0.6-0.4,1.8-0.1,2.4c1.4,3.3-0.3,6.8,0.8,10.1c0.2,0.4,0.1,1,0,1.5c-1.9,11.4-0.6,22.9-0.8,34.3c-0.1,6.1-1.1,12.1-2.5,18
	c-0.3,1.3-0.5,2.4,0,3.8c1,3.1,1.3,6.4-0.2,9.5c-0.5,1.1-0.4,2.3-0.3,3.4c1.1,7.6-3.9,14.7-11.2,16.3c-4.4,1-8.6,0.9-13.2,0.2
	c-4-0.6-8.1-1.2-12.3-1.3c-5.4-0.2-11.9-5-13.3-10.2c-0.5-1.9-1.2-3.7-2-5.5C91.3,507.8,91.4,504.6,91.4,501.5z"/>
<path class="st2" d="M219.9,497.4c-3.2,3-6,6.9-10.6,8.9c-1.8,0.8-3.6,1.5-5.4,2.2c-2.9,1-6.1,1.1-8.8,2.7c-0.9,0.6-2,0.4-2.9,0.3
	c-3.4-0.4-6.6,0.5-9.8,1.2c-7.8,1.7-6.7,0.7-12.4-1.2c-2.6-3.6-3.4-7.9-3.4-12c-0.1-9.3-2.1-18.5-1.1-27.7c1.2-11.9,0.9-23.8,1-35.7
	c0-0.8,0.1-1.6,0.5-2.4c1.8-4.1,2.7-8.4,2.5-12.7c0.9-2.8,3.4-3.5,5.5-3.8c5.3-0.9,10.5-2.7,16-2.3c3.2,0.2,6.2-0.7,9.2-1.5
	c1.8-0.5,3.6-0.7,5.3-0.9c3.1-0.3,6.1,0.6,7.8,3.8c1.6,3,3.7,5.9,3.2,9.7c-0.2,1.8,0.7,3.6,1.1,5.2c0.8,3.1,0.6,6.2,0.9,9.3
	c0.4,4.2,1,8.4,1.6,12.7c0.6,4.3,0.2,8.6,0.3,12.9c0.1,4.3,1.1,8.4,2.9,12.7C220.7,484.1,221.2,490.4,219.9,497.4z"/>
<path class="st2" d="M248.7,495.3c-5.9-3.8-8.5-9.6-8.5-16.8c0.1-11.8,0.1-23.6,0-35.4c0-3,0.4-6-0.6-8.9c-0.3-0.8-0.3-1.6,0.1-2.4
	c0.7-1.6,0.3-3.1-0.1-4.7c-0.6-3.1-0.4-6.3-0.3-9.4c0.1-1,0.9-2.3,1.7-2.9c3.5-2.4,7-4.8,11-6.4c4.1-1.7,8.3-1.9,12.6-1.9
	c7.4,0,10.1,2.5,11.6,9.9c1.1,5.4,1,10.8,0.9,16.3c0,5.6,0.4,11.1,1.9,16.5c0.2,0.8,0.1,1.7,0.1,2.5c-0.1,4.1,0.4,8.1,1.6,12.1
	c1.2,3.9,0.9,8.3,0.1,12.3c-0.8,4.1-2.6,8-3.5,12.1c-0.6,3-2.6,4.6-4.9,4.9c-2.9,0.4-5.7,1.6-8.8,1.3
	C258.8,494.1,254,496.3,248.7,495.3z"/>
<g>
	<path class="st7" d="M622.7,526.3c4.3-3,9.3-5.3,13.7-8.8c1.8-1.4,4.1-2.1,6.5-2c2.9,0.2,5.9-0.3,8.8,0.8c1.7,0.7,3.9,0.1,5.7,0.1
		c4.1,2.7,7.9,5.2,11.7,7.7c0.4,0.3,0.9,0.5,1.2,0.9c4.2,6.2,8.6,12.4,10.4,19.9c1.1,4.6,2.1,9.2,3,13.8c0.9,5-1.4,9.4-3.5,13.6
		c-1.1,2.1-2.3,4.4-3.7,6.3c-2.5,3.6-5.4,7-9.2,9.4c-6.5,4.1-13.8,5.6-21.1,7.3c-3,0.7-6.2-0.1-9.3,1c-1.5,0.5-3.2-0.6-4.7-1
		c-5-1.3-10.2-1.9-14.9-4.6c-2.6-1.5-5.3-2.7-6.6-5.6c-0.7-1.5-2.5-1.5-3.4-2.8c-2.1-5.4-2.7-11.1-2.5-16.9c0-1.7,0.5-3.3,1.1-4.8
		c1-2.6-0.3-5.5,1.3-7.9c1.5-2.3,2.6-4.8,3.6-7.4c0.2-0.6,0.8-1.1,1-1.7c1.1-5.2,4.5-8.9,7.9-12.6
		C620.8,529.8,621.5,528.3,622.7,526.3z"/>
	<path class="st7" d="M597.9,580.8c-2.1,2.6-5.4,2.8-7.7,4.6c-4.1,0.3-7.9,0.4-11.2-1.9c-5.7-0.4-10.2-3.4-13.9-7.4
		c-4.4-4.8-6.8-10.6-7.2-17.3c-0.4-5.7,1-11.1,1.2-16.7c0.1-2.3,1.5-4.7,3.2-6.5c5.7-6,12.3-9.9,20.8-11.3
		c6.9-1.2,13.2-0.2,19.7,1.7c1.2,0.4,2.5,0.6,3.8,0.8c1.3,1.1,2.6,2,3.3,3.4c0.5,2.3-1.3,3.8-2.3,4.8c-3.4,3.5-4.3,8-5.5,12.3
		c-0.3,1.1-0.6,2.2-1.1,3.2c-4.7,8.5-4.1,17.7-3.9,26.9c0,0.6,0.5,1.2,0.7,1.8C597.8,579.7,597.8,580.2,597.9,580.8z"/>
	<path class="st2" d="M625.4,500.6c-0.3,0.4-0.8,1.1-1.3,1.7c-0.2,0.2-0.6,0.1-1.4,0.2c-1.8-2.2-4.6-3.5-7.1-5.2
		c-2.4-1.5-5.3-2.5-8.2-2.7c-2.7-0.3-5.1,1.2-7.5,3c-3.2,2.4-6.1,4.8-8.1,8.3c-0.4,0.7-1,1.3-2,1.5c-1.3-0.3-1.8-1.2-1.9-2.4
		c-0.5-3.9,0.5-7.4,3.2-10.4c3-3.3,6.7-5.7,10.8-8c4.6-0.3,9.4,0.9,14.1,1.9c1.1,0.2,2,0.5,2.5,1.4
		C620.6,493.4,624.6,495.5,625.4,500.6z"/>
	<path class="st2" d="M620,553.1c1.3-2.3,4.1-3.2,5.1-5.4c2.8-0.7,5.1,0.2,7.3,1.1c1.2,2.6,1.7,5.3,1.4,8.1
		c-0.3,2.3-0.6,4.7-3.1,5.6c-1.9,0.7-1.7,3.2-3.7,3.7C620.3,564.6,619.6,563.3,620,553.1z"/>
	<path class="st2" d="M576,540.5c3.2,1.6,6.5,2.8,5.8,7.4c-2.5,2.7-4.9,5.8-8.6,7.5c-0.4-0.1-0.7-0.1-1-0.2
		c-5.3-3.1-5.6-7.7-0.9-11.8C572.6,542.2,574.1,541.2,576,540.5z"/>
</g>
<path class="st0" d="M108.3,421.1c1.5-1.7,2.8-3.1,3.2-5.2c0.3-1.6,1.2-3,3.2-3.4c1.2-0.3,2.5-1,3.3-2c1-1.2,2.4-0.8,3.7-0.7
	c1.1,0.9,2.3,1.9,3.6,3c3.1-1.7,6.6,0.4,9.6-1.2c4.4,2.1,5.1,6,5.3,10c0.2,4.1-0.1,8.3,0.1,12.5c0.2,5.2,1,10.5,0.6,15.6
	c-0.3,3.2-0.1,6.6-1.1,9.7c-0.3,0.8-0.5,1.6-0.4,2.4c0.7,6.8-0.9,13.5-1.3,20.2c-0.3,5.9-0.8,11.8-0.8,17.8c0,6,0,12,0,17.8
	c-1.3,2.2-3.1,3-5.5,2.9c-3.2-0.2-6.6,1.1-9.6-0.3c-3.1-1.4-6.5-0.2-9.7-1.5c-2.7-1.1-5.1-1.8-6.4-4.7c-0.5-1.2-1.7-2-2.6-3.1
	c-2.1-17.8-1-35.6-1.1-53.4c0-3.9,1.1-7.7,1.6-11.6c0.2-1.3,0.4-2.7,0.2-3.9c-0.6-4.8,0.8-9.2,2.6-13.4
	C108,426.2,108.6,423.9,108.3,421.1z"/>
<path class="st0" d="M208.3,423.2c-0.2,1.9,0.3,3.9,1,5.9c1.3,3.5,1.3,7.4,1.9,11c0.3,1.9,0.3,3.9,1.1,5.8c0.7,1.7,1.2,3.4,1,5.3
	c-0.2,2.1,0.2,4.3,0,6.5c-0.6,7.5,1,14.8,1.1,22.3c0.1,4.5-1.4,8.7-1.2,13.3c0.1,1.7-1.4,3.6-2.4,5.3c-1,1.7-2.7,2.4-4.7,2
	c-1.1-0.2-1.9,0.6-2.7,1c-2.9,1.3-5.8,2-9,2c-5,0-9.6,1.7-14,3.9c-3.4-1.5-3.9-5-4.7-7.7c-0.8-2.5-1.3-5.4-1.4-8.2
	c-0.1-3.9-1-7.7-1.6-11.6c-0.4-2.5-0.7-5.1,0-7.4c0.8-2.6,0.9-5.1,0.8-7.8c-0.3-5.8,0.5-11.4,1.7-17.1c0.5-2.2,0.7-4.7-0.1-6.9
	c-1.5-4.2-0.6-8.2,0.5-12.1c0.8-2.6,2.9-4.3,5.5-5.4c4.1-1.8,8.4-2.6,12.9-2.8c1.5-0.1,3,0.4,4.4-0.3
	C202.4,418.1,205.5,419.6,208.3,423.2z"/>
<path class="st0" d="M253.2,487.4c-2.5-3.6-3.7-7.6-3.8-11.6c-0.1-5.6-1.1-11.1-1.9-16.6c-0.6-4.4-1.3-8.8-1.3-13.3
	c0-3.8,0-7.7-0.1-11.5c0-1.3-0.2-2.7,0.5-3.9c1.8-3,2-6.5,3-10.2c5-3.1,10.4-5.9,17-4.5c3.1,3,3.4,7.3,3.5,11.2
	c0.1,7.1,0.9,14.1,1.9,21.1c0.5,3.3-0.2,6.7,0.2,10c0.9,6.2,0.4,12.4,1.8,18.6c0.7,3-2.2,8.4-6.1,9.8c-3.8,1.4-7.7,3.1-11.9,1.1
	C255.5,487.3,254.5,487.5,253.2,487.4z"/>
<g>
	<path class="st2" d="M586.2,183.8c0.6-0.5,1.3-1.5,2.1-1.8c4.9-1.6,7-5.6,8.6-10c0.4-1.1,1-2.1,1.5-3.1c3-7.1,4.7-14.3,2.5-22
		c-1.3-4.9-2.2-9.8-3.4-14.7c-0.9-4.1-1.2-8.5-3.6-12.2c0.3-4.6-2.3-8.5-2.9-12.9c-0.5-3.6-2.2-6.8-3.2-10.3
		c-0.7-2.2-1.4-4.3-1.9-6.5c-0.5-2.3,0.1-3.8,1.5-4.3c1.2-0.5,3.6,0.1,4.3,1.7c1.7,3.7,5.4,5.9,6.4,9.9c1.1,0.2,2.1,0.3,3.3,0.5
		c2.5,4.7,8.4,6.9,9.8,12.8c4.1,1.1,7.3,3.7,10.1,6.8c3.8-2.1,6.3,0.7,9.5,1.9c3.5-0.3,6.1-2.6,7.9-5.6c0.7-1.2,1.6-2.2,2.6-3
		c3.4-2.6,6.7-5.2,8.4-8.8c2.2-0.7,3.8-0.4,5.4-0.3c2.8,3.1,4.2,7.6,9.1,9c3-0.9,5.5-3.4,8.7-4.1c0.3-0.1,0.7-0.3,0.8-0.5
		c1.2-4.1,5.8-5.6,7.2-9.5c0.5-1.4,1.5-2.2,3.3-1.9c2,1.5,2.7,3.8,2.6,6.6c1.3,1,2.6,2,3.9,3.1c0.7,1.8-0.8,4.3,2.3,5.1
		c5.5-3.4,7.6-10.6,13.8-14.8c0.5-0.5-0.4-2,0.5-3.2c7.2-8.8,12.3-19.2,19.8-27.8c0.3-0.4,0.7-0.7,1.2-1c0.9,0,1.9,0,3.1,0
		c3.4,2.7,3.9,6.7,4.2,10.5c0.3,4.8,0.4,9.5,2.1,14.1c0.1,0.3,0.1,0.7,0.1,1c-0.6,5,1.6,9.8,1,14.8c-0.1,1-0.1,2.1,0.3,2.9
		c1.4,2.9,1.8,6,1.7,8.6c0.7,1.7,1.9,2,3,2.4c2.1,0.9,4.1,1.8,6.2,2.9c3,1.7,6.4,2.8,9.7,0.3c1-0.8,2.2-0.7,3.3-0.7
		c4,0,7.5-1.3,10.2-4.1c2.5-2.5,6-1.4,8.4-3.3c3,2.7,3.9,5.3,2.3,8.7c-1.2,2.7-2.2,5.4-3.7,8c-2,3.3-2.9,6.9-2.4,10.9
		c0.9,1.2,2,2.3,2.7,3.6c1.3,2.3,3.4,3.3,5.7,4.3c5.3,2.2,11.1,2.8,16.2,5.4c0.3,0.1,0.6,0.5,0.9,0.4c6.7-0.7,12.9,2.8,19.6,2.1
		c2.7-0.3,5.2,0.2,7.4,2.1c2.5,2.1,5.9,1.9,8.8,2.7c2.2,0.6,3.6,1.4,4.6,3.4c-2,4.3-5.5,7.3-10.1,7.5c-4.2,0.2-8,1.5-12,2.6
		c-3,0.8-6,1.8-9,1.6c-2.6,1.6-4.4,3.8-6.9,5.1c-2.9,1.6-3.6,4.5-2.6,7.7c1.3,4.1,2.8,8,5.9,11.1c0.6,0.6,1.3,1.3,1.4,2
		c0.6,3.5,2.9,5.3,5.8,6.8c3.1,1.5,5.8,3.7,8,6.5c1.2,2.8-1.1,4.7-1.8,7c-2.4,2.1-5.4,2.9-8.4,3.5c-3.7,0.8-6.7,2.6-9.4,5.7
		c0,5.6-0.7,11.5,0.2,17.2c1,6.6,0.2,13.5,3.5,19.7c0.9,1.7,0.2,3.6,0.4,5.5c2.7,4.4,3.8,9.5,5.2,13.9c-1.4,2-2.5,3.1-4.3,4.1
		c-3.9-4.4-9.2-7.1-14.4-9.7c-1.2-0.6-2.3-1.1-3.6-1.5c-1.7-0.5-3.6-1.2-4.8-2.4c-2.8-2.6-6-4-9.6-5.1c-1.3,1.9-4.2,1.5-5.7,3.4
		c-2.7,3.3-5.9,6.1-7.2,10.4c-0.3,0.9-1,1.7-1.6,2.5c-2.1,3.4-3,7.1-2,11.1c0.3,1.1,0.5,2.6-0.1,3.4c-1.1,1.7-0.5,3.6-1,5.6
		c-1.9,1.3-2.6,4-5,5c-4.5-1.7-7.6-4.7-9.9-9c-1.4-2.5-4.2-4.1-6.9-6.7c-4.4-0.8-8.3,0.7-11.9,4.8c-2.2,2.6-3.5,5.3-5,8.2
		c-3.3,6.6-5.7,13.5-7.4,20.7c-0.7,2.8-0.9,5.8-1.5,8.7c-0.8,4-2,6-4.7,8.5c-3.6-1.4-5.3-4.6-6-7.9c-1.3-5.8-4.3-10.9-6.3-16.4
		c-1-2.6-3.4-4.5-4.2-7.2c-0.7-2.2-2.3-4-3.3-5.9c-1.6-3.3-4.4-4.2-7.2-4.4c-4.5-0.4-9.2-0.9-13.5,1.7c-1.1,0.7-2.3,1.3-3.3,2.2
		c-3.1,2.8-6.7,4.7-10.2,6.9c-1.5,0.9-3,1.4-4.7,0.8c-1.7-2.3-2.4-4.8-2.7-7.7c-0.4-3.7-1.8-7.2-2.8-10.8c-0.2-0.8-0.5-1.6-1-2.2
		c-2.9-3.8-5.8-7.5-8.8-11.2c-1.9-2.3-4.8-2.1-7.2-2.5c-3.4-0.5-7-0.1-10.5-0.1c-0.5,0-1.1-0.1-1.5,0.1c-5.9,2.8-12.5,3.5-18.5,6
		c-3.8,1.6-7.6,2.9-11.4,2.9c-2.8-1.4-1.5-4.4-3-6c1.4-3.7,1-7.7,3-11c0.3-0.6,0.3-1.3,0.7-1.8c2.8-4.6,5.8-9.2,8.6-13.8
		c1.4-2.2,2.5-4.6,3.7-6.9c0.8-1.6,1.3-3.4,2.4-4.8c3-4.1,3.7-8.7,3.7-13.5c0-3.7-0.1-7.3,0-11c0.2-4-0.6-7.8-2-11.5
		c-1-2.8-2.6-5.1-4.4-7.4c-4.3-5.4-8.1-11.2-10.2-17.9C585.9,186.6,585.9,185.4,586.2,183.8z"/>
	<path class="st6" d="M815.9,218.5c-0.8,1.9-1.8,2.5-3,2.3c-5.7-1.1-11.3,0.2-16.9,1.1c-4.6,0.8-12.7,7.3-11.2,13.8c0.2,1,0,2,0,3.2
		c2.5,3.5,4.6,7.3,7.5,10.7c0.7,0.9,1.5,1.8,1.9,2.9c2.8,8,6.2,15.8,8.1,24.1c-1.4,1.8-3.2,1.7-4.8,0.5c-4-2.9-8.9-4.1-12.8-7.2
		c-2.5-2-5.8-3.2-8.9-4c-4-1.1-7.9,0.2-11.3,2.4c-4.9,3.2-8.1,7.8-8.5,13.7c-0.2,2.4-0.8,4.6-1.4,6.7c-1,3.7-1.9,7.3-1.7,11.1
		c0.1,1.8,0,1.8-2,3.8c-2.4-2.1-5.2-3.8-7.7-6c-3.1-2.6-6.2-5-10.3-6.4c-2.9-1-5.4-2.2-8.8-1.3c-2.9,3.4-5.5,7.2-7.3,11.7
		c-2.4,6-5.1,11.9-7.3,18c-0.7,2-1.4,4-1.7,6.1c-0.3,1.7-1.5,3.2-2.5,5c-2.8-2.1-3.9-5.1-5.2-7.8c-1.1-2.1-1.7-4.3-4.4-4.7
		c-2-6.7-3.8-13.2-9.2-18.3c-2.5,0-4.9-2-7.8-2.9c-4.5,0.7-8.3,2.7-11.9,5.4c-2.2,1.7-5.2,1.6-7.5,3.4c-1.6,1.3-4,1.2-5.2,3.1
		c-2.1-1.8-2.1-3.8-2.1-5.8c0-4.9,0.2-9.8-1-14.6c-0.2-0.6-0.1-1.4-0.4-1.9c-2.8-3.5-4.9-7.9-9.6-9.4c-0.6-0.2-1.3-0.5-1.9-0.5
		c-5.6,0-11.2-0.4-16.7,1.2c-3.6,1.1-7.2,2-10.9,2.7c-2.1,0.4-3,2.6-4.6,2.8c-1.7,0.5-2.6-0.5-4.1-0.6c-3.3,2.8-7.4,4.1-12.6,4.5
		c-0.3-0.1-1.1-1-0.8-2c1.1-3.6,1.7-7.3,4.5-10.2c2.3-2.4,3.4-5.6,4.1-8.8c0.3-1.5,0.8-3,1.9-3.9c4.7-3.7,6-9.9,10.6-13.7
		c0.9-0.7,1-2.4,1.5-3.6c0.9-2.1,1.3-4.2,2.7-6.2c1.3-1.8,2.1-4.5,0.6-7c-0.9-1.6,0.2-3.6-0.8-5.3c-3.1-5-4.2-11-7.9-15.8
		c-1-1.3-1.9-2.6-3-3.9c-1.7-2-3.3-4-3.9-6.7c-0.6-2.6-2.5-4.6-5.1-5.2c-0.5-2.2-0.9-3.9-1.4-5.8c2-1.1,3.2-3.9,6.2-2.7
		c2.2-2.3,6.3-2.2,7.7-5.8c0.6-1.6,1.9-2.6,3.5-3.4c2.3-4.6,2.8-9.4,2.5-14.4c-0.1-1.3-0.3-2.5-0.8-3.8c-2-5.7-3.5-11.6-6.2-17
		c-0.5-1-1.2-2-1-3.3c0.6-3.6-0.8-6.8-2.1-10c-0.4-1.1-1.2-2-0.9-3.3c0.4-1.9-0.4-3.9-1.3-5.2c-2.6-3.6-2.3-8.2-4.4-11.9
		c-0.8-1.3-0.4-2.9-0.1-4.6c2.3,0.2,3.9,0.9,4.9,2.9c0.4,0.9,1.1,1.8,1.9,2.2c6,3.5,9.2,9.7,13.8,14.6c0.9,1,1.6,2.1,2.9,2.6
		c2,0.8,3.8,1.7,4.6,4.1c0.6,1.6,2.4,2.2,4.1,2.4c3.3,0.3,6.6-0.5,9.9,0.6c0.7,0.2,2.1-0.4,2.6-1.1c2.1-2.3,4.7-4.2,6-7.2
		c2-4.8,4.3-9.5,6.4-14.1c0.8,0,1.6-0.2,1.7,0c2.3,3.3,5.9,5.2,8.3,8.4c1.9,2.5,4.2,4.8,7.7,4.4c4.3-2.9,6.3-7.2,7.9-11.8
		c0.7-1.9,1-4.4,4.1-4.2c1.9,1.7,2.3,4.3,3.2,6.4c1.2,2.9,3.9,4.8,4.5,8c0.3,1.8,2.3,2.1,3.7,2.6c2.5-0.6,3.1-2.9,4.5-4.5
		c2.5-2.8,4.4-6,6-9.4c1.4-2.9,3.6-5.4,5.4-8.1c0.5-0.7,1.2-1.3,1.4-2c1.7-4.9,5.3-8.5,8.3-12.6c0.9-1.2,0.8-2.5,1.3-3.7
		c1-2.5,1.7-5,4-6.6c1.5-1.1,1.4-3.5,3.5-4c1.4,0.3,1.8,1.7,1.9,2.6c0.2,3.8,1.6,7.4,1.2,11.3c-0.3,2.8-0.2,5.7,0,8.5
		c0.6,7.5,0.9,15.1,2.1,22.5c1.1,7,6.4,10.8,12.4,13.8c3.9-0.1,7.8,1,11.6-1.4c5.3-3.3,10.9-6.1,15.9-9.8c0.7-0.5,1.5-0.7,2.6-0.4
		c0.7,2.3,0.4,4.3-0.9,6.8c-2.8,5.8-5.8,11.7-5.8,18.5c0,3.3,1.7,5.7,3.5,8c0.7,0.9,2,1.8,3.5,1.5c2.8-0.4,5.5,0.5,8.3,1
		c6,1.1,12.1,1.4,17.8,3.7c2.2,0.9,4.6,0.3,6.9,0.2c4.8-0.3,9.1,1,13.3,3.2c1.1,0.6,2,1.2,1.6,3c-1.2,1.4-3.3,1.5-5,2.3
		c-2.8,1.3-5.7,2.3-8.7,3c-6.6,1.7-12.3,5.3-17.9,9c-4.8,3.2-4.7,6-3.8,10.7c1.2,6.1,5.5,9.5,9.9,13c3.7,3,8.1,5,11.7,8.3
		C812.7,214.9,813.8,217.1,815.9,218.5z"/>
	<path class="st2" d="M680.1,152.3c1.2-3.3,3.3-4.4,5.9-4.9c3-0.7,6.1-1.1,9.2-1.6c4.5-0.6,8.8,0.1,13.2,0.2
		c3.9,0.1,7.8,1.5,11.1,3.4c4.3,2.3,8.5,4.6,12.9,6.8c0.4,0.2,0.8,0.6,1.1,1c2.8,3.9,7.3,5.6,10.8,8.5c4.7,3.9,8.9,8.4,13.3,12.6
		c0.8,0.7,1,1.6,1.3,2.6c0.4,1.4,1.1,2.8,2.2,3.8c2,1.8,3.3,3.9,4.5,6.3c1.3,2.5,1.7,5.2,3.1,7.6c1.4,2.4,1,5.1,1.1,7.7
		c0,1.1-0.2,2.3,0.5,3.4c0.3,0.5,0.6,1.4,0.4,1.9c-1.2,2.9-0.4,6-1.1,8.8c-0.9,3.8-0.7,7.8-2.7,11.4c-1.6,2.9-2.9,5.9-5.3,8.4
		c-1.9,2-3.4,4.4-5.2,6.7c-3.9,5.1-7.9,10.1-13.5,13.5c-1.6,0.9-3.1,2-4.3,3.3c-0.7,0.7-1.5,1.4-2.4,1.7c-4.4,1.2-8.5,3.4-12.8,4.9
		c-5.5,2-11.2,2.7-16.7,3.4c-5.8,0.7-11.8,2-17.7,1.3c-0.7-0.1-1.3,0-2-0.1c-3.8-0.7-3.8-0.7-6.7,0.1c-1.8-0.8-3.6-1.4-5.9-1.2
		c-2,0.1-4.2-0.8-6-1.9c-1.8-1.1-4.1-1.3-5.6-2.2c-1.7-1.1-3.8-1.8-5.3-3.3c-3.4-3.3-7.4-6.1-10.5-9.7c-4.8-5.6-9.8-11.2-12.3-18.4
		c-2.2-6.5-5.3-12.8-5.6-19.7c-0.2-4.7-0.5-9.5,0.5-14.3c0.8-3.7,1.5-7.4,2.3-11c1-4.5,3.5-8.5,5.9-12.3c2.4-3.8,5.8-7.1,9-10.4
		c5.7-5.7,12-10.8,18.8-15.2c3-1.9,6.5-2.1,9.4-4.1C676.4,150.1,678.3,150.8,680.1,152.3z"/>
	<path class="st7" d="M635.9,207.7c2.7-3.5,1.8-7.9,2-12.2c5.1-4.9,6.1-12,10-18.2c1.9-0.4,3.2-2,4.9-3.6c2.6-2.5,5-5.7,9-6.4
		c0.8-0.1,1.7-0.5,2.2-1.1c2.9-3,6.7-4,10.4-5.4c0.6-0.2,1.2-0.4,1.7-0.8c3.4-2.6,7.6-2.8,11.7-3.2c3.9-0.4,8,0.7,11.8-0.8
		c4.6,1.9,10-0.8,14.4,2.5c3-0.4,5.3,1.4,7.8,2.3c1.1,0.4,2,1.1,2.8,2.4c0,1.4,0,3.1,0,5c-0.8,1.7-2.8,2.7-3.6,4.9
		c-2.2,6-7.1,8.6-13.2,9.7c-5,0.9-9.5,3.4-14,5.4c0,1.2-0.3,2.4,0.1,3.2c2.5,5,3.3,10.6,6.3,15.3c1.2,1.8,2.1,3.8,4.4,4.3
		c0.1,1.2,0.2,2.2,0.3,3.3c1.5,2.1,3.8,3,6.2,4.2c2.5-0.7,5.2-1.5,7.8-2.2c2-0.6,4.3-0.7,5.6-2.7c4.1-1.1,8-2.7,11.2-5.7
		c3.7,0.2,5.5-3.3,8.6-4.3c1.3-0.4,2.6-1.2,4-1.7c3.7-1.4,7.2-3.3,10.9-5c1.5,2.1,2.5,4.3,2.5,6.8c0,1.2-0.1,2.3,0,3.5
		c0.8,5.8-2.2,9.6-6.4,12.8c-3.6,2.8-7.2,5.7-11.5,7.3c-5,1.9-10.2,3.4-15.7,3.7c-3,0.2-6.1,0.9-9.2,1.2c-0.6,0.1-1.1,0.8-1.8,0.4
		c-3.2-1.8-4.6,0.3-6.4,2.5c-3.5,4.4-6.8,8.8-9.2,14.2c1.2,2.6,2.8,4.8,5.8,5.5c1.4,0.3,2.2,1.4,3.3,2.1c1.5,1,3,1.2,4.6,0.4
		c2.4,2,4.7,4,7.2,6.1c-2.6,2.4-5.7,3.2-9,3.4c-2,0.2-4,0.3-6,0c-3.2-0.5-6.4,0.3-9.6-0.7c-0.8-0.3-1.6,0.1-2.4,0.3
		c-4.1,0.8-8.1,0.8-12.2-0.4c-4.4-1.3-8.9-2-13.4-3.1c-3.9-0.9-7.4-2.5-10.3-5.5c-3.8-4-7.7-7.8-11.6-11.6
		c-2.9-2.9-4.7-6.3-5.4-10.3c-0.2-1.4-0.8-2.6-1.6-3.6c-2.6-3.3-3.6-7-3.4-11C638.1,216.4,636.8,212.3,635.9,207.7z"/>
	<path class="st0" d="M735.2,169c1.3,0.8,2.4,2.5,4.5,0.8c2.8,3,5.6,5.9,8.3,8.7c1.1,1.2,2.3,2.4,3.4,3.6c3.4,3.7,3.3,7.1-1.1,10.4
		c-1.7,1.3-3.3,2.7-5,4.1c-5.1,4.1-11.5,6.1-16.5,10.3c-0.2,0.2-0.6,0.5-0.9,0.5c-4.8,0.2-8.9,2.9-13.6,3.4c-0.3,0-0.6-0.1-1.2-0.2
		c-5.3-4.4-8.8-10-9.4-16.8c2-3.3,5.2-4.2,7.9-4.7c3.3-0.6,6.1-2.2,8.2-4c4.3-3.9,9.4-7.3,11.9-12.9
		C732.4,170.4,733.7,169.8,735.2,169z"/>
	<path class="st0" d="M714.9,247.5c-0.4-4.8,2.5-6.1,5.4-6.7c2.4-0.5,4.3-1.5,6.3-3.1c3.5,0.9,7.1-1.5,11,0.1
		c3.3-2.1,7.5-1.9,11-3.6c3.2-1.6,6-4.2,8.9-6.3c2.5,0.5,2.4,2.3,2.2,4.1c-3.9,4.8-6.4,10.4-11,14.6c-4.3,4-9.1,7.4-13.6,11.5
		C728.7,253.6,720.3,253.2,714.9,247.5z"/>
</g>
<g>
	<path class="st2" d="M441.5,505.6c-3.7,4.4-8.4,5.5-13.4,5.8c-2.2,0.1-4.4,1-6.3,0.7c-2.1-0.3-4.2-0.5-6.4-0.6
		c-1.1-0.1-2.3,0.2-3.4-0.4c-2.5-1.4-4.3-0.2-6.1,1.5c-2.5,2.4-5.4,4.2-8.4,5.8c-8.7,4.6-17.9,7.7-27.7,9.1
		c-4.2,0.6-8.2,2.4-12.4,2.6c-4.3,0.3-8.9-0.2-13.1-1.3c-2.9-0.8-5.4-3.1-8-4.8c-0.8-0.5-1.5-1.3-2.5-1.5
		c-6.6-1.6-11.1-5.3-12.7-12.1c-0.3-1.1-0.8-2.3-1.6-3c-3.2-3-4.2-7.3-6.7-10.7c-0.9-1.3-1.9-2.8-1.6-4.5c0.4-2.6-0.5-4.8-1.8-7
		c-0.6-1.1-1.4-2.2-1.3-3.7c0.8-9-1.4-17.8-1-26.8c0.1-2.3,0.2-4.5,0.9-6.8c1.9-6.4,3.5-12.8,6.2-18.9c1.7-3.9,3.1-7.9,5-11.7
		c2.8-5.6,6.8-10.1,11.7-14.1c3.4-2.8,7-5.5,10.5-8.2c5.3-4.2,11.4-6.4,18-7.2c1-0.1,2.1-0.3,3,0c4.8,2,10.1,2.8,14.6,5.6
		c2.6,1.7,5,3.8,7.7,5.4c5.6,3.3,11.4,6.4,17.6,8.5c5.4,1.8,10.9,3.6,16.9,1.7c1.8-0.6,4.3,0.1,6.2,1c2.6,1.1,5.3,1.6,8,2.2
		c6.5,1.5,11.5,5.4,16.4,9.6c5.3,4.6,9.1,10.1,12,16.6c1.6,3.4,2.4,7.1,4,10.4c0.1,0.3,0.3,0.6,0.3,0.9c0.1,7.3,1.8,14.5,1,21.8
		c-0.6,5.2-2.2,10.2-4.2,15c-1.3,3.1-2.8,6.5-4.9,8.9C453.4,500,449.1,505.3,441.5,505.6z"/>
	<path class="st2" d="M436,559.5c1.2-0.7,2.1-1.7,3.1-1.9c6-1,11.9-2.4,18-2.1c1.2,0.4,1.8,1.4,2.6,2.4c-0.9,3.6-4.4,5-6.6,7.4
		c-4.7,0.3-9.7-0.3-13.8,3.1c-4.4,0-8.9,0-13.3,0c-2.1,0-4.2-0.3-6.3,0.7c-1.3,0.6-2.8,0.2-4.3-0.5c-3.3-1.5-6.7-2.5-10.5-2.3
		c-0.7,0.1-1.5,0.2-2-0.1c-2.2-1.5-4.9-1.8-7.3-2.8c-1-2,0-4.4-1.8-5.7c1.4-2.8,3.1-2.6,5.2-2c2.6,0.8,5.1,2.1,7.8,2.7
		c4.3,1,8.5,0.8,12.8,0.9C425.2,559.7,430.7,559.5,436,559.5z"/>
	<path class="st2" d="M399,530.1c1.3-4.8,5.1-7.1,7.6-10.4c1.2-1.7,3.7-2.1,5.8-2.2c3-0.1,6,0,9,0c1,1,1.9,1.9,3,2.8
		c6.5,5.1,6.2,16,1.1,22.3c-1.1,1.3-2.6,2.3-4.1,2.7c-1.5,0.4-3.2,0.7-4.7,1.1c-1.1,0.3-2.3,0.4-3.4-0.3c-3.6-2.3-7.3-4.4-10.6-7
		c-1.3-1-2.1-3-2.4-4.7C400,532.7,399.4,531.2,399,530.1z"/>
	<path class="st2" d="M457.4,511.5c2.1,2,4.3,3.9,6.3,6.1c3.3,3.7,2.9,11.9-0.1,15.9c-2.7,3.6-5.7,4.9-10.1,3.3
		c-1.5-0.5-3.2-0.4-5-0.6c-0.9-0.8-1.9-1.6-2.9-2.5c-4.9-4-6.1-11.7-2.3-17.6c1.8-2.9,5.5-3.9,8.9-4.6
		C453.8,511.2,455.5,511.5,457.4,511.5z"/>
	<path class="st7" d="M332.1,514.1c-3.1-5.8-6-11.2-9-16.7c-1.2-2.2-2.4-4.3-2-6.9c0.2-1.4-0.6-2.7-1.3-3.7c-2.2-3-2.5-6.3-2.8-9.8
		c-0.4-3.9-0.3-7.9-2.4-11.4c-0.9-1.6-0.7-3.3-0.4-4.9c1.2-6.1,2.4-12.1,4.1-18.1c1.4-5,2.7-10,5.5-14.4c0.9-1.4,0.1-3.3,0.5-5
		c0.8-1.1,2.2-1.1,3.4-1.7c1.6-2.9,3.2-5.8,5.6-8.4c2.9-3.1,6.1-6,8.5-9.5c0.9-1.3,2-2.6,3.7-3.2c4.1-1.5,8.3-3,12.4-4.5
		c0.6-0.2,1.3-0.3,2-0.3c7.4,0.2,14.3,1.8,19.9,7c5.8,5.4,11,11.3,13.9,19.1c2.3,0.8,3.2,2.8,4.2,4.9c2.1,4.4,5.9,7.7,8.6,11.8
		c2.5,3.8,5.8,7.1,5.8,12.2c0,1.2,0.9,2.4,1.2,3.7c2.1,6.9,3.9,13.9,1.8,21.2c-0.2,0.8-0.2,1.7,0,2.5c2.3,7.7-0.7,13.2-6.8,17.9
		c-1.7,1.3-3.4,3-4.7,4.9c-2.3,3.3-5.2,5.9-8.9,7.7c-3.3,1.7-6.4,4-9.5,6.1c-1.4,0.9-2.7,1.9-4.5,1.8c-1.4-0.1-2.5,0.8-3.6,1.4
		c-7.6,4.1-15.9,5.1-24.3,4.6c-2.8-0.2-5.3-1.7-7.8-2.6c-3.6-1.3-7.5-2.3-10.5-5.1C334.2,514.3,333.2,514.4,332.1,514.1z"/>
	<path class="st7" d="M405.2,419.2c0.5-1,1.5-1.7,2.5-2.3c0.9-0.4,1.5,0.6,2.9,0.5c1.7-1,3.9-3.1,6.7-1c3.9-2.5,7.7,0.2,11.5,0.4
		c4.3,0.2,8.1,2.6,11.7,5c3.1,2.1,5.8,4.9,8.7,7.4c0.1,0.1,0.3,0.2,0.4,0.3c1.4,4.9,5.3,8.6,5.7,13.9c0.3,3.4,1.3,6.7,2.4,9.9
		c2.6,7.5,2,15,0.3,22.4c-0.5,2.3-0.5,4.9-1.8,7.1c-2.6,4.3-5.4,8.2-9.2,11.7c-5.5,5-12,6.8-18.6,8.8c-0.9,0.3-2.2,0.4-2.9,0
		c-2-1.1-4.2-0.8-5.8-0.9c-1.1-0.9-1.7-1.6-1.5-2.4c0.4-1.7,0.5-3.8,1.6-5.1c2.6-3.3,2.9-7.3,4.1-11c1.1-3.4,0.9-7.3,0.1-10.8
		c-0.6-3-0.9-6.1-1.7-9.1c-1.3-4.9-2.2-9.9-3-14.9c-0.6-3.8-2.4-6.9-4.9-9.4c-1.1-1.1-1.6-2.3-2.2-3.6c-0.7-1.7-1.2-3.4-1.7-5.1
		c-0.8-2.8-1.5-5.6-3.9-7.8C405.7,422.6,404.9,421.2,405.2,419.2z"/>
	<path class="st7" d="M414,541.5c-1.5-0.8-3-1.5-4.4-2.4c-3.1-2-4.1-5.1-3.5-8.6c0.5-2.8,4.2-6.6,7-7c0.6-0.1,1.5-0.2,1.9,0.1
		c1.8,1.2,3.9,0.6,5.8,0.9c2.5,0.8,3.3,2.9,4.2,5.1c0.1,1.7-0.8,3.2-0.6,5.2c0.4,3.6-3.2,6.5-7,6.6
		C416.3,541.5,415.1,541.5,414,541.5z"/>
	<path class="st7" d="M452.4,518c5.3,0.8,8.7,3.5,9.6,9.2c-0.4,2.3-2.3,4-3.4,6c-5.9,0.3-9.4-2.1-11.1-7.6c-1.1-3.6-0.3-5.4,3.1-7.1
		C451.2,518.3,451.9,518.2,452.4,518z"/>
	<path class="st2" d="M398,458c2.2,3,2.5,6.3,1,9.7c-1.5,3.6-7,5-9.5,2.5c-1.6-1.5-2.3-6.9-1.5-9.1c0.5-1.5,1.6-2.4,2.8-3.4
		c2.1,0,4.2,0,6.4,0C397.4,457.6,397.7,457.9,398,458z"/>
	<path class="st2" d="M439.2,459.9c2.7-0.8,5.3-0.4,8-0.2c0.8,1.1,1.7,2.3,2.5,3.4c1.5,5.6-0.2,9.4-5.5,12.2c-3.1-0.5-6-1.6-6.8-4.8
		C436.5,466.9,436.5,463.1,439.2,459.9z"/>
</g>
<g>
	<path class="st2" d="M399.5,282.3c-2.6-0.8-5.9-1.6-8.2-4.1c-2.1-2.2-4.2-4.6-5.4-7.4c-1.2-2.6-2-5.6-1.5-8.6
		c0.5-2.8,2.2-5.1,4.6-6.8c1.5-1,3-1.9,4.5-2.9c4.6,2,9.2,3.6,13.5,6c7.1,4,8.3,13.4,2.3,18.6C406.6,279.4,404.1,282,399.5,282.3z"
		/>
	<path class="st2" d="M447,278.5c0,3.7,0,6.4,0,9.2c-1.3,2.8-3.4,5-5.6,7.3c-3.7,3.8-8.3,3.5-12.4,2.1c-4.2-1.4-7.6-4.5-9.2-9.1
		c-3.5-10.1,4.3-19.2,12.9-18.2c3.5,0.4,6.4,2.4,9.2,4.4C443.8,275.5,445.4,277.2,447,278.5z"/>
	<path class="st2" d="M417.9,312.9c-5.1-0.4-9.7,1.3-14.7,0.1c-3.6-0.9-7.4-1.2-10.6-3.2c-0.3-0.2-0.8-0.1-0.9-0.3
		c-4.3-5.2-10.4-9.1-12.4-16.1c-0.1-0.5-0.1-1-0.1-1.7c1-2.2,2.4-3.7,5.3-2.8c4.2,4.9,6.3,11.5,12.3,15.6c2.3-0.4,4.1,1.3,5.9,3.1
		c3.8,0,7.6,0,11.4,0C417.5,307.6,418,308.1,417.9,312.9z"/>
	<path class="st7" d="M406.9,273.2c-6.3,4.7-12.3,3.3-15.2-3.4c-1.2-2.7-0.3-5.5-0.6-8.4c0.6-0.7,1.3-1.4,1.7-1.9
		c1.1-0.8,1.9,0.4,2.6,0c3-1.6,4.9,0,6.9,2C405.5,264.8,408.1,268.3,406.9,273.2z"/>
	<path class="st7" d="M425.2,278.8c2.3-0.9,3.6-3.6,6.2-3c2.5,0.6,4.9,1.8,7.1,3.2c1.4,0.9,2.3,2.7,3.6,4.3c0,1.7,0,3.7,0,5.7
		c-5.7,4.2-6.1,4.3-10,4.7c-2.4-1.2-3.6-4.2-6.6-4.8C424.8,285.5,425.1,282.4,425.2,278.8z"/>
	<path class="st2" d="M379.3,233.7c-2.8,0.9-4.8-1-6.9-2c-4.1-2.1-8.2-4.3-10.4-8.7c-0.7-1.3-1.6-2.7-1.7-4.1
		c-0.3-6.8-2.2-13.5-1-20.2c0.8-4.3,1.4-8.7,3.2-12.8c1-2.2,1.8-4.6,2.6-6.9c2.6-6.8,6.9-12.7,10.9-18.7c0.4-0.5,0.9-1.1,1.4-1.4
		c4.2-2.2,7.1-5.8,10.6-8.8c6.3-5.6,13.5-9.9,21.7-12c3.8-1,7.9-2.8,12-0.7c1.1,0.6,2.2-0.6,3.3-0.7c6-0.3,12.1-0.6,17.7,1.3
		c4.9,1.6,9.8,3.8,14,7c3.2,2.4,6.7,4.2,9.7,7.6c0.9,4.3,5,8,5.6,13.1c2,1.3,3.1,3.2,5.1,4.2c1.6,0.8,3.2,1.5,4.8,2.1
		c4.6,1.9,9.9,2.7,13.4,6.7c1.1,1.3,2.8,1.7,4.4,2.4c1.2,1.6,2.4,3.2,4.3,4.4c5.3,3.5,6.9,9.5,8.6,15c1.3,4.2,1.9,8.7,0.4,13.1
		c-0.5,1.4-0.3,3-0.2,4.5c0.1,3.5-0.9,6.8-2.3,10c-1.2,2.8-3,5.2-4.6,7.8c-1.6,2.5-3.6,4.6-5.1,7.1c-2.4,4.1-5.9,7.4-9.4,10.7
		c-2.6,2.5-5,5.1-8.1,7.1c-7.7,5.2-16,7.6-25.2,6.9c-1.5-0.1-3-0.2-4.4-0.2c-0.7-0.8-1.2-1.9-2-2.2c-3.9-1.5-6.2-5.4-10.2-6.9
		c-1.7-0.6-3.3-2.4-4-4.3c-0.9-2.5-2.7-3.9-4.9-5.3c-2-1.4-3.7-3.3-5.7-5.2c-5.3,0.3-10.7-0.1-16.2,0.4c-3.1,0.3-6.4-1-9.5-1.8
		c-1.3-0.3-2.6-0.7-3.9-0.6c-1.7,0.2-3.3-0.3-4.8-1.1c-1-0.6-2.1-0.8-3.2-1C385.5,239.3,382,237.8,379.3,233.7z"/>
	<path class="st7" d="M374.1,181.5c1.6-1.4,2.3-3.1,2.2-5.2c-0.1-2.7,1-4.9,3.3-6.3c3.8-2.2,6.1-5.8,8.7-9.1c1.5-2,3.1-3.6,5.3-5
		c4.1-2.6,8.5-4.6,13-6.5c0.7-0.3,1.4-1,1.9-1.6c3-3.3,6.9-3.9,10.9-2.8c3,0.8,5.8,1,8.7-0.1c4.2-1.6,8.5-0.3,12.7,0.3
		c2.4,0.4,4.8,0.9,7.1,1.8c5.3,1.9,8.1,6.3,11.3,10.4c3.9,4.9,5.2,10.9,7.8,16.3c-0.7,4.8,1.7,9.3,0.4,14.3c-0.8,3-0.4,6.5-1.3,9.7
		c-0.8,3.1-1.6,6.3-2.8,9.3c-1,2.5-2.5,5-4.2,7.1c-1.8,2.3-3.2,5.2-5.3,7c-2.4,2.1-4,4.7-5.9,7.1c-0.8,1.1-2.4,2-3.7,2.3
		c-6.2,1.5-12,4.3-18.3,5.3c-5.8,0.9-11.6,1.6-17.4,0.1c-3.2-0.8-6.5-0.1-9.8-1.1c-2.2-0.6-4.3-1.3-6.5-2.1
		c-4.8-1.8-9.2-4.3-13.4-7.2c-1.3-0.9-2.1-2-2.6-3.5c-1.7-4.8-3.1-9.6-3-14.8c0.1-4.8,0.3-9.7,0-14.5
		C372.8,189.1,374.6,185.5,374.1,181.5z"/>
	<path class="st7" d="M437.2,242.4c1.2-1.6,2.8-2.6,4.5-3.6c4.9-3,9.9-5.9,14-10.1c1.8-1.8,2.7-4.1,4.2-6.1c2-2.6,3.9-5.3,6-7.9
		c3.3-4.2,4.8-9.3,6.1-14.3c1.5-5.6,2.5-11.2,2-17c-0.2-1.8,0.4-3.2,1.7-4.5c2.1,0,4.2,0,6.5,0c4.8,2.6,9,6.1,12.5,10.3
		c2.5,3,4.5,6.4,7.1,9.4c1.6,1.8,2.2,4.4,2.7,6.8c1,4.9,2.6,9.9,0.4,14.9c-0.2,0.4-0.1,1-0.4,1.4c-3.7,5.3-5,11.6-7.6,17.4
		c-1.3,2.7-3.2,4.9-5.3,6.9c-2.4,2.3-4.7,4.6-7,7c-4.2,4.4-9.3,7.3-15.4,7.8c-11.2,0.8-20.3-3.1-27.1-12.1c-1.3-1.7-3.3-2.1-4.9-3.5
		C437.2,244.5,437.2,243.7,437.2,242.4z"/>
	<path class="st2" d="M433.6,202.9c1.2,1.3,2.2,2.4,3.4,3.6c0,1.7,0,3.6,0,5.7c-2.2,2.7-4.9,4.5-8.5,3.1c-3.4-1.4-6.2-3.8-5.2-10.1
		c0.4-0.5,1-1.1,1.6-1.7c0.5-0.6,1-1.3,1.1-1.5c2-0.4,3.3-0.3,4.6,0.3C431.4,202.8,432.7,202.8,433.6,202.9z"/>
	<path class="st2" d="M476.5,230.9c1.2,1,2.2,1.9,3.4,3c0.3,3.9-0.8,7.5-3.3,11c-2.9-1.2-5.8-1.1-8.8-1.2c-1.5-0.8-2.5-2.2-3.6-3.7
		c-0.1-2.3-0.7-4.8,1.2-6.7C468.6,230.7,472.3,230.4,476.5,230.9z"/>
</g>
</svg>
